<svg width="24" height="24" viewBox="0 0 24 24" xmlns="http://www.w3.org/2000/svg"><path d="M21.5645922,5.25632595 C21.6177582,5.28619452 21.8504003,5.41999722 21.9000357,5.44731501 C21.9502841,5.47497016 21.9822803,5.49123491 22.0010959,5.5 L24,5.5 L24,19.5 L22,19.5 C20.8158043,19.5 19.9798426,19.2461655 19.0854078,18.7436741 C19.0322418,18.7138055 18.7995997,18.5800028 18.7499643,18.552685 C18.7098941,18.5306316 18.6814307,18.5158215 18.6620496,18.5063099 C18.6379836,18.5182018 18.6062216,18.5352779 18.5628624,18.5599301 C18.5209785,18.5837436 18.3193295,18.7022683 18.2640678,18.7340279 C17.376484,19.2441335 16.5406534,19.5 15.34,19.5 C14.1558043,19.5 13.3198426,19.2461655 12.4254078,18.7436741 C12.3722418,18.7138055 12.1395997,18.5800028 12.0899643,18.552685 C12.0498024,18.5305812 12.0213006,18.5157538 12.0019172,18.506245 C11.9779764,18.5180297 11.9463752,18.5349603 11.9032732,18.5593908 C11.8610502,18.583323 11.6568821,18.7030472 11.6006689,18.7352611 C10.7119887,19.2445334 9.8736325,19.5 8.67,19.5 C7.46501574,19.5 6.62642943,19.2436822 5.74002568,18.7327867 C5.68344823,18.7001772 5.48196434,18.5813265 5.44071435,18.5577917 C5.39667305,18.5326643 5.36486521,18.5155457 5.34116203,18.5038882 C5.31747567,18.5153769 5.28576231,18.5322379 5.24210597,18.5568795 C5.19876087,18.5813454 4.98922039,18.7039477 4.93227788,18.7364863 C4.04294487,19.2446766 3.2029308,19.5 2,19.5 L0,19.5 L0,5.5 L1.99317447,5.5 C2.01789629,5.48818699 2.05174229,5.47014889 2.10071435,5.44220833 C2.14196434,5.41867353 2.34344823,5.29982279 2.40002568,5.2672133 C3.28642943,4.75631777 4.12501574,4.5 5.33,4.5 C6.51419571,4.5 7.35015744,4.75383453 8.24459216,5.25632595 C8.29775821,5.28619452 8.53040026,5.41999722 8.58003572,5.44731501 C8.61943237,5.46899769 8.64760912,5.48367852 8.66697822,5.49321341 C8.68995573,5.48170576 8.72014461,5.46535502 8.76071435,5.44220833 C8.80196434,5.41867353 9.00344823,5.29982279 9.06002568,5.2672133 C9.94642943,4.75631777 10.7850157,4.5 11.99,4.5 C13.1741957,4.5 14.0101574,4.75383453 14.9045922,5.25632595 C14.9577582,5.28619452 15.1904003,5.41999722 15.2400357,5.44731501 C15.2794324,5.46899769 15.3076091,5.48367852 15.3269782,5.49321341 C15.3499557,5.48170576 15.3801446,5.46535502 15.4207144,5.44220833 C15.4619643,5.41867353 15.6634482,5.29982279 15.7200257,5.2672133 C16.6064294,4.75631777 17.4450157,4.5 18.65,4.5 C19.8341957,4.5 20.6701574,4.75383453 21.5645922,5.25632595 Z" fill="#FFFFFF" fill-rule="nonzero"/><path d="M5.35,12.5 C6.54,12.5 6.77,13.5 8.68,13.5 C10.63,13.5 10.77,12.5 12.01,12.5 C13.2,12.5 13.43,13.5 15.34,13.5 C17.29,13.5 17.43,12.5 18.67,12.5 C19.86,12.5 20.07,13.48 21.98,13.5 L21.98,11.5 C20.79,11.5 20.56,10.5 18.65,10.5 C16.7,10.5 16.56,11.5 15.32,11.5 C14.13,11.5 13.9,10.5 11.99,10.5 C10.04,10.5 9.9,11.5 8.66,11.5 C7.47,11.5 7.24,10.5 5.33,10.5 C3.38,10.5 3.24,11.5 2,11.5 L2,13.5 C3.9,13.5 4.17,12.5 5.35,12.5 Z M18.67,14.5 C16.72,14.5 16.58,15.5 15.34,15.5 C14.15,15.5 13.92,14.5 12.01,14.5 C10.06,14.5 9.91,15.5 8.67,15.5 C7.43,15.5 7.29,14.5 5.34,14.5 C3.39,14.5 3.24,15.5 2,15.5 L2,17.5 C3.95,17.5 4.11,16.5 5.34,16.5 C6.58,16.5 6.72,17.5 8.67,17.5 C10.62,17.5 10.77,16.5 12.01,16.5 C13.2,16.5 13.43,17.5 15.34,17.5 C17.28,17.5 17.43,16.5 18.67,16.5 C19.86,16.5 20.09,17.5 22,17.5 L22,15.5 C20.76,15.5 20.62,14.5 18.67,14.5 Z M5.35,8.5 C6.54,8.5 6.77,9.5 8.68,9.5 C10.63,9.5 10.77,8.5 12.01,8.5 C13.2,8.5 13.43,9.5 15.34,9.5 C17.29,9.5 17.43,8.5 18.67,8.5 C19.86,8.5 20.07,9.48 21.98,9.5 L21.98,7.5 C20.79,7.5 20.56,6.5 18.65,6.5 C16.7,6.5 16.56,7.5 15.32,7.5 C14.13,7.5 13.9,6.5 11.99,6.5 C10.04,6.5 9.9,7.5 8.66,7.5 C7.47,7.5 7.24,6.5 5.33,6.5 C3.38,6.5 3.24,7.5 2,7.5 L2,9.5 C3.9,9.5 4.17,8.5 5.35,8.5 Z" fill="currentColor" fill-rule="nonzero"/></svg>
