<svg width="100%" height="100%" viewBox="0 0 127.718 171.879" fill="currentColor" xmlns="http://www.w3.org/2000/svg"><path d="M0.27,171.879 L19.909,128.332 C19.909,128.332 24.33,132.837 26.269,134.758 C69.223,97.085 117.719,16.761 118.209,15.946 L127.718,0.12 L121.818,17.615 C121.561,18.378 95.632,93.883 37.583,146.048 C40.393,148.861 43.796,152.25 43.796,152.25 L0.27,171.879 Z" fill="#FFFFFF"/><path d="M34.6718,145.9628 C38.5068,149.8048 40.3288,151.6198 40.3288,151.6198 L4.2658,167.8828 L20.5298,131.8208 C20.5298,131.8208 24.1758,135.5368 26.1868,137.4778 C70.2288,99.6928 119.9238,16.9758 119.9238,16.9758 C119.9238,16.9758 94.1168,93.5098 34.6718,145.9628"/></svg>
