<svg width="100%" height="100%" viewBox="0 0 154.966 155.722" fill="currentColor" xmlns="http://www.w3.org/2000/svg"><path d="M154.966,155.722 L114.101,130.901 C114.101,130.901 119.058,127.206 121.307,125.405 C103.838,99.467 75.886,70.326 55.32,50.276 C32.567,28.094 13.695,11.946 13.507,11.786 L0.02,0.27 L15.733,8.493 C16.427,8.856 85.175,45.359 133.878,115.536 C137.011,113.092 140.787,110.128 140.787,110.128 L154.966,155.722 Z" fill="#FFFFFF"/><path d="M133.4352,118.4185 C137.7162,115.0805 139.7392,113.4935 139.7392,113.4935 L151.4862,151.2685 L117.6752,130.7315 C117.6752,130.7315 121.4862,127.8925 123.9792,125.8065 C90.1232,74.5775 14.8052,10.2645 14.8052,10.2645 C14.8052,10.2645 84.3862,46.6805 133.4352,118.4185"/></svg>
