<svg width="100%" height="100%" viewBox="0 0 138.936 135.581" fill="currentColor" xmlns="http://www.w3.org/2000/svg"><path d="M121.314,126.991 C121.133,126.903 102.926,117.976 81.063,102.961 C45.828,78.761 27.22,56.856 17.662,42.233 C15.176,43.85 10.208,47.065 10.208,47.065 L0.06,0.42 L38.543,28.663 C38.543,28.663 33.1,32.212 31.051,33.542 C40.39,48.342 58.948,68.3 84.889,91.421 C105.295,109.609 123.233,123.471 123.412,123.609 L138.936,135.581 L121.314,126.991 Z" fill="#FFFFFF"/><path d="M28.3213,32.923 C29.4353,32.215 35.0303,28.566 35.0303,28.566 L3.1373,5.16 L11.5483,43.816 C11.5483,43.816 15.4003,41.322 18.2573,39.459 C50.1823,90.089 122.1903,125.193 122.1903,125.193 C122.1903,125.193 50.5123,69.919 28.3213,32.923"/></svg>
