<svg width="100%" height="100%" viewBox="0 0 72 74" xmlns="http://www.w3.org/2000/svg"><rect fill-rule="nonzero" x="0" y="0" width="72" height="74" fill="none"/><path d="M39.0593547,58.7884348 L38.9564897,58.7218699 C39.7896785,59.2203017 40.4466351,59.9077532 40.8972098,60.7575003 C41.3320043,61.5774874 41.5480902,62.4833375 41.5480902,63.4460742 L41.5480902,65.4460742 L40.6769574,65.4460742 C40.9380247,65.8150778 41.1446478,66.2174347 41.2952022,66.6480155 C41.500587,67.2354094 41.5986273,67.8706228 41.5986273,68.5478809 C41.5986273,69.2755439 41.4690211,69.9640337 41.2021837,70.5991027 C40.9286754,71.2500482 40.5259447,71.819706 40.0048728,72.2899622 C39.497791,72.7475926 38.8987104,73.0928074 38.2240183,73.3260533 C37.5773245,73.54962 36.8790747,73.6575 36.1357367,73.6575 C35.4361873,73.6575 34.7562336,73.5515042 34.1036676,73.3389504 C33.4068645,73.1119878 32.7753833,72.7610725 32.2229029,72.2917413 C31.6413931,71.7977497 31.1847449,71.1828172 30.8595313,70.4672829 C30.5291534,69.7403861 30.3720648,68.9294045 30.3720648,68.0484912 L30.3720648,66.0484912 L31.5602095,66.0484912 C31.3604251,65.7831096 31.1884974,65.4975364 31.0454041,65.1936378 C30.7469947,64.559882 30.6048529,63.8592022 30.6048529,63.1092822 C30.6048529,62.3825403 30.7390397,61.6916625 31.0131032,61.052498 C31.2890205,60.4090098 31.689363,59.8437407 32.2038327,59.3728025 C32.4414732,59.1552698 32.6987405,58.9620079 32.974038,58.7931896 C23.2122858,57.4536118 15.4916183,49.7073808 14.1897306,39.9321844 L13.2986429,44.685 L8.18270744,44.685 L8.13927281,44.4779893 L8.09481425,44.685 L2.99716716,44.685 L0.1,29.31 L15.3774287,29.3100178 C17.8255467,22.7488335 23.3158066,17.6702851 30.1325983,15.7899828 L30.1320648,0.66 L35.1981524,0.66 L36.0207367,2.27167478 L36.0207367,0.66 L41.8492279,0.66 L41.8494919,15.787234 C49.0477267,17.7690806 54.7683141,23.3166917 56.9923794,30.4111926 L56.9920648,29.31 L67.2852777,29.31 L67.2852777,34.9063785 L66.667846,34.9062454 L66.667846,39.0971259 L67.3303216,39.097255 L67.3303216,44.685 L56.9920648,44.685 L56.9926923,43.5878094 C54.488378,51.5776123 47.5494201,57.6056661 39.0593547,58.7884348 Z" fill="#FFFFFF" fill-rule="nonzero" opacity="1"/><path d="M55.9960324,37 C55.9960324,48.045695 47.0417274,57 35.9960324,57 C24.9503374,57 15.9960324,48.045695 15.9960324,37 C15.9960324,25.954305 24.9503374,17 35.9960324,17 C47.0417274,17 55.9960324,25.954305 55.9960324,37 Z M17.9960324,37 C17.9960324,46.9411255 26.0549069,55 35.9960324,55 C45.9371579,55 53.9960324,46.9411255 53.9960324,37 C53.9960324,27.0588745 45.9371579,19 35.9960324,19 C26.0549069,19 17.9960324,27.0588745 17.9960324,37 Z" fill="currentColor" fill-rule="nonzero"/><path d="M51.7460324,37 C51.7460324,45.6984848 44.6945172,52.75 35.9960324,52.75 C27.2975476,52.75 20.2460324,45.6984848 20.2460324,37 C20.2460324,28.3015152 27.2975476,21.25 35.9960324,21.25 C44.6945172,21.25 51.7460324,28.3015152 51.7460324,37 Z M21.7460324,37 C21.7460324,44.8700577 28.1259747,51.25 35.9960324,51.25 C43.8660901,51.25 50.2460324,44.8700577 50.2460324,37 C50.2460324,29.1299423 43.8660901,22.75 35.9960324,22.75 C28.1259747,22.75 21.7460324,29.1299423 21.7460324,37 Z" fill="currentColor" fill-rule="nonzero"/><g fill-rule="evenodd" transform="translate(11.4921, 12.5)"><polygon fill="#FFFFFF" fill-rule="nonzero" points="24.5 48.53076 20.46777 32.86279 10.93945 38.05908 16.13672 28.53223 0.46875 24.5 16.13672 20.46777 10.93945 10.94092 20.46777 16.13721 24.5 0.46924 28.53223 16.13721 38.06055 10.94092 32.86328 20.46777 48.53125 24.5 32.86328 28.53223 38.06055 38.05908 28.53223 32.86279"/><polygon fill="currentColor" fill-rule="nonzero" points="24.5 43.51562 21.27832 30.99658 14.07227 34.92676 18.00293 27.72168 5.48438 24.5 18.00293 21.27832 14.07227 14.07324 21.27832 18.00342 24.5 5.48438 27.72168 18.00342 34.92773 14.07324 30.99707 21.27832 43.51562 24.5 30.99707 27.72168 34.92773 34.92676 27.72168 30.99658"/><polygon fill="currentColor" fill-rule="nonzero" points="17.20564 17.20563 24.5 21.18421 24.5 24.5"/><polygon fill="#FFFFFF" fill-rule="nonzero" points="17.20564 17.20563 24.5 24.5 21.18421 24.5"/><polygon fill="currentColor" fill-rule="nonzero" points="24.5 24.5 17.20563 31.79436 21.18421 24.5"/><polygon fill="#FFFFFF" fill-rule="nonzero" points="24.5 24.5 24.5 27.81579 17.20563 31.79436"/><polygon fill="currentColor" fill-rule="nonzero" points="24.5 24.5 31.79436 31.79437 24.5 27.81579"/><polygon fill="#FFFFFF" fill-rule="nonzero" points="24.5 24.5 27.81579 24.5 31.79436 31.79437"/><polygon fill="currentColor" fill-rule="nonzero" points="31.79437 17.20564 27.81579 24.5 24.5 24.5"/><polygon fill="#FFFFFF" fill-rule="nonzero" points="24.5 21.18421 31.79437 17.20564 24.5 24.5"/><polygon fill="currentColor" fill-rule="nonzero" points="24.5 24.5 10.5 24.5 21.63436 21.63436"/><polygon fill="#FFFFFF" fill-rule="nonzero" points="24.5 24.5 21.63436 27.36564 10.5 24.5"/><polygon fill="currentColor" fill-rule="nonzero" points="24.5 24.5 24.5 38.5 21.63436 27.36564"/><polygon fill="#FFFFFF" fill-rule="nonzero" points="24.5 24.5 27.36564 27.36564 24.5 38.5"/><polygon fill="currentColor" fill-rule="nonzero" points="38.5 24.5 27.36564 27.36564 24.5 24.5"/><polygon fill="#FFFFFF" fill-rule="nonzero" points="27.36564 21.63436 38.5 24.5 24.5 24.5"/><polygon fill="currentColor" fill-rule="nonzero" points="24.5 10.5 27.36564 21.63436 24.5 24.5"/><polygon fill="#FFFFFF" fill-rule="nonzero" points="24.5 10.5 24.5 24.5 21.63436 21.63436"/></g><polygon fill="currentColor" fill-rule="nonzero" points="5.71806479 39.381 7.37241635 31.31 8.94895444 31.31 10.5830648 39.384 11.8975628 31.31 13.7734173 31.31 11.6390179 42.685 9.80662046 42.685 8.16206479 34.847 6.4787396 42.685 4.65549741 42.685 2.51206479 31.31 4.39365659 31.31"/><path d="M37.702265,68.5635059 C37.702265,68.3303516 37.6776678,68.1217131 37.6284735,67.9375903 C37.5792791,67.7534676 37.4875637,67.5850309 37.353327,67.4322803 C37.2190903,67.2795296 37.0276027,67.1305632 36.7788641,66.9853809 C36.5301255,66.8401986 36.2110947,66.6909473 35.8217718,66.537627 C35.375971,66.3655078 34.9589789,66.1776823 34.5707953,65.9741504 C34.1826117,65.7706185 33.841242,65.5361418 33.5466864,65.2707202 C33.2521307,65.0052987 33.0215195,64.6956063 32.8548529,64.3416431 C32.6881862,63.9876799 32.6048529,63.5768929 32.6048529,63.1092822 C32.6048529,62.6466357 32.6869859,62.2237638 32.8512518,61.8406665 C33.0155178,61.4575692 33.2498521,61.1266976 33.5542547,60.8480518 C33.8586574,60.5694059 34.2212062,60.3534025 34.6419012,60.2000415 C35.0625962,60.0466805 35.5303086,59.97 36.0450384,59.97 C36.7797389,59.97 37.4079738,60.1260669 37.929743,60.4382007 C38.4515122,60.7503345 38.8516791,61.1690763 39.1302435,61.6944263 C39.408808,62.2197762 39.5480902,62.8036589 39.5480902,63.4460742 L37.6558783,63.4460742 C37.6558783,63.0762012 37.5995225,62.7485238 37.4868109,62.463042 C37.3740993,62.1775602 37.1980739,61.9531136 36.9587347,61.7897021 C36.7193955,61.6262907 36.4085638,61.544585 36.0262396,61.544585 C35.6776068,61.544585 35.3902329,61.6134123 35.164118,61.7510669 C34.9380031,61.8887215 34.7709092,62.0748381 34.6628363,62.3094165 C34.5547634,62.543995 34.5007269,62.81021 34.5007269,63.1080615 C34.5007269,63.3199756 34.544896,63.5103239 34.6332342,63.6791064 C34.7215724,63.847889 34.8490342,64.0028573 35.0156195,64.1440112 C35.1822048,64.2851652 35.3861029,64.4175505 35.6273138,64.541167 C35.8685248,64.6647835 36.1434271,64.7841683 36.4520208,64.8993213 C36.9857123,65.0937386 37.4502712,65.307382 37.8456976,65.5402515 C38.241124,65.7731209 38.5683539,66.0347786 38.8273871,66.3252246 C39.0864203,66.6156706 39.2797186,66.9433073 39.4072821,67.3081348 C39.5348456,67.6729622 39.5986273,68.0862109 39.5986273,68.5478809 C39.5986273,69.0176074 39.5185288,69.4431038 39.3583319,69.8243701 C39.1981349,70.2056364 38.9669948,70.5325814 38.6649115,70.8052051 C38.3628281,71.0778288 37.9980414,71.2880339 37.5705511,71.4358203 C37.1430609,71.5836068 36.6647894,71.6575 36.1357367,71.6575 C35.6446885,71.6575 35.1738023,71.5840951 34.723078,71.4372852 C34.2723537,71.2904753 33.8705796,71.0672087 33.5177557,70.7674854 C33.1649318,70.467762 32.8857774,70.0918465 32.6802923,69.6397388 C32.4748073,69.187631 32.3720648,68.6572152 32.3720648,68.0484912 L34.2687933,68.0484912 C34.2687933,68.4125049 34.3132269,68.724069 34.4020941,68.9831836 C34.4909613,69.2422982 34.6202134,69.4527881 34.7898504,69.6146533 C34.9594875,69.7765186 35.1600287,69.8956388 35.391474,69.9720142 C35.6229193,70.0483895 35.8806504,70.0865771 36.1646673,70.0865771 C36.5190781,70.0865771 36.8097682,70.0224902 37.0367376,69.8943164 C37.263707,69.7661426 37.4313706,69.5873503 37.5397284,69.3579395 C37.6480861,69.1285286 37.702265,68.8637174 37.702265,68.5635059 Z" fill="currentColor" fill-rule="nonzero"/><polygon fill="currentColor" fill-rule="nonzero" points="65.3303216 41.0968652 65.3303216 42.685 58.9920648 42.685 58.9920648 31.31 65.2852777 31.31 65.2852777 32.9059473 60.8910648 32.905 60.8910648 36.046 64.667846 36.0463281 64.667846 37.6044336 60.8910648 37.604 60.8910648 41.096"/><polygon fill="currentColor" fill-rule="nonzero" points="39.8492279 2.66 39.8492279 14.035 37.9893646 14.035 33.9693451 6.16146484 33.9693451 14.035 32.1320648 14.035 32.1320648 2.66 33.9734955 2.66 38.0207367 10.5896875 38.0207367 2.66"/></svg>
