<svg width="24" height="24" viewBox="0 0 24 24" xmlns="http://www.w3.org/2000/svg"><path d="M12,4.66 C16.05,8.36 18,11.45 18,13.8 C18,17.43 15.35,20 12,20 C8.65,20 6,17.43 6,13.8 C6,11.46 7.95,8.36 12,4.66 Z M7.83,14 C7.37,14 7.01,14.42 7.09,14.87 C7.66,17.9 10.15,19.12 12.28,18.99 C12.68,18.97 13,18.64 13,18.24 C13,17.81 12.64,17.47 12.21,17.49 C10.85,17.6 8.98,16.84 8.57,14.62 C8.5,14.26 8.2,14 7.83,14 Z" fill="currentColor" fill-rule="evenodd" opacity="0.5"/><path d="M12,2 C6.67,6.55 4,10.48 4,13.8 C4,18.78 7.8,22 12,22 C16.2,22 20,18.78 20,13.8 C20,10.48 17.33,6.55 12,2 Z M12,20 C8.65,20 6,17.43 6,13.8 C6,11.46 7.95,8.36 12,4.66 C16.05,8.36 18,11.45 18,13.8 C18,17.43 15.35,20 12,20 Z" fill="currentColor" fill-rule="nonzero"/></svg>
