<svg width="24" height="24" viewBox="0 0 24 24" xmlns="http://www.w3.org/2000/svg"><path d="M10.5,7.25 L10.5004874,14.1990386 L9.77383638,14.799025 C8.97134938,15.4616282 8.5,16.4401514 8.5,17.5 C8.5,19.4329966 10.0670034,21 12,21 C13.9329966,21 15.5,19.4329966 15.5,17.5 C15.5,16.4404372 15.0289085,15.4621537 14.2267937,14.7995454 L13.5006062,14.1996587 L13.5005473,13.2577391 L13.5,12.75 L12,12.75 L12,11.5 L13.5,11.5 L13.5,9.5 L12,9.5 L12,8.25 L13.5,8.25 L13.5,7.25 L10.5,7.25 Z" fill="currentColor" fill-rule="nonzero" opacity="0.5"/><path d="M12,1 C13.9329966,1 15.5,2.56700338 15.5,4.5 L15.5005473,13.2576141 C16.7217359,14.2664096 17.5,15.7923182 17.5,17.5 C17.5,20.5375661 15.0375661,23 12,23 C8.96243388,23 6.5,20.5375661 6.5,17.5 C6.5,15.791858 7.27868363,14.2655873 8.50044003,13.2567987 L8.5,4.5 C8.5,2.56700338 10.0670034,1 12,1 Z M10.5,4.4998995 L10.5004874,14.1990386 L9.77383638,14.799025 C8.97134938,15.4616282 8.5,16.4401514 8.5,17.5 C8.5,19.4329966 10.0670034,21 12,21 C13.9329966,21 15.5,19.4329966 15.5,17.5 C15.5,16.4404372 15.0289085,15.4621537 14.2267937,14.7995454 L13.5006062,14.1996587 L13.5005473,13.2577391 L13.5,12.75 L12,12.75 L12,11.5 L13.5,11.5 L13.5,9.5 L12,9.5 L12,8.25 L13.5,8.25 L13.5,6.25 L12,6.25 L12,5 L13.5,5 L13.5,4.5 C13.5,3.67157288 12.8284271,3 12,3 C11.1715729,3 10.5,3.67157288 10.5,4.4998995 Z" fill="currentColor" fill-rule="nonzero"/></svg>
