<?xml version="1.0" encoding="UTF-8"?>
<svg width="24px" height="24px" viewBox="0 0 24 24" version="1.1" xmlns="http://www.w3.org/2000/svg" xmlns:xlink="http://www.w3.org/1999/xlink">
    <title>Info ICON</title>
    <defs>
        <path d="M0,0 L3963,0 L3963,6320 L0,6320 L0,0 Z" id="path-1"></path>
        <path d="M0,0 L24,0 L24,24 L0,24 L0,0 Z" id="path-2"></path>
    </defs>
    <g id="MassSims-General-Design" stroke="none" stroke-width="1" fill="none" fill-rule="evenodd">
        <g id="MassSims:-General-Design" transform="translate(-2472, -305)" xlink:href="#path-1">
            <use fill="#FFFFFF" fill-rule="evenodd" xlink:href="#path-1" display="none"></use>
            <g id="Info-ICON" transform="translate(2472, 305)" xlink:href="#path-2">
                <polygon id="Path" points="0 0 24 0 24 24 0 24" display="none"></polygon>
                <path d="M11,7 L13,7 L13,9 L11,9 L11,7 Z M11,11 L13,11 L13,17 L11,17 L11,11 Z M12,2 C6.48,2 2,6.48 2,12 C2,17.52 6.48,22 12,22 C17.52,22 22,17.52 22,12 C22,6.48 17.52,2 12,2 Z M12,20 C7.59,20 4,16.41 4,12 C4,7.59 7.59,4 12,4 C16.41,4 20,7.59 20,12 C20,16.41 16.41,20 12,20 Z" id="Shape" fill="#000000" fill-rule="nonzero"></path>
            </g>
        </g>
    </g>
</svg>