<?xml version="1.0" encoding="UTF-8"?>
<svg width="95px" height="30px" viewBox="0 0 95 30" version="1.1" xmlns="http://www.w3.org/2000/svg" xmlns:xlink="http://www.w3.org/1999/xlink">
    <title>CC Logo</title>
    <g id="CC-Logo" stroke="none" fill="none">
        <polygon id="Rectangle" points="0 -0.00065573041 95 -0.00065573041 95 30 0 30"></polygon>
        <g stroke-width="1" fill-rule="evenodd" transform="translate(0.29, -0.0028)">
            <path d="M84.5912199,9.47820765 C84.7732314,9.00042757 85.5581558,8.18137599 86.2975774,8.18137599 C86.4795888,8.18137599 86.6274731,8.21550314 86.8208603,8.261006 L86.8208603,9.93323631 C86.6388489,9.85360629 86.4454617,9.81947915 86.2634502,9.81947915 C85.1941329,9.81947915 84.6367228,10.9684265 84.6367228,12.1856282 L84.6367228,14.9613029 L83.0782496,14.9613029 L83.0782496,9.62609197 L82.1909438,9.62609197 L82.1909438,8.261006 L83.6015326,8.261006 C84.1248155,8.261006 84.6025956,8.52264748 84.6025956,9.08005758 L84.5912199,9.47820765 L84.5912199,9.47820765 Z M62.2606887,9.06868186 C62.7839716,8.44301746 63.5575203,8.06761882 64.3765719,8.10174597 C65.8895422,8.10174597 66.5948366,9.023179 66.5948366,10.6954093 L66.5948366,13.5052113 L67.4138882,13.5052113 L67.4138882,14.8361701 L66.0032993,14.8361701 C65.4800164,14.8361701 65.0363635,14.5745286 65.0363635,14.0171185 L65.0363635,10.9115479 C65.0363635,10.0583692 64.8884791,9.54646195 64.1149304,9.54646195 C63.0456131,9.54646195 62.2948158,10.547525 62.2948158,11.7305995 L62.2948158,14.8361701 L60.7022155,14.8361701 L60.7022155,9.5805891 L59.8831639,9.5805891 L59.8831639,8.21550314 L61.2937528,8.21550314 C61.7374057,8.13587312 62.1469315,8.3975146 62.2606887,8.84116754 C62.2606887,8.92079755 62.2606887,8.98905185 62.2606887,9.06868186 Z M31.8533988,7.47608157 C32.1150403,7.47608157 32.3766817,7.65809303 32.3766817,7.95386166 C32.3766817,7.98798881 32.3766817,8.03349167 32.3766817,8.03349167 L32.3766817,8.9549247 L31.4552487,8.9549247 L31.4552487,8.28375743 L30.6361971,8.28375743 L30.6361971,13.0956855 L29.6351341,13.0956855 L29.6351341,8.36338745 L28.8160825,8.36338745 L28.8160825,8.9549247 L27.9287766,8.9549247 L27.9287766,8.06761882 C27.9287766,7.73772305 28.0766609,7.44195442 28.4520596,7.44195442 L31.8647745,7.44195442 L31.8647745,7.47608157 L31.8533988,7.47608157 Z M34.0034092,9.5123348 C34.3333049,9.13693616 34.7769579,8.9549247 35.2661137,8.9549247 C36.2330496,8.9549247 36.6767025,9.5123348 36.6767025,10.5816521 L36.6767025,12.3562639 L37.2682398,12.3562639 L37.2682398,13.2094426 L35.7097666,13.2094426 L35.7097666,10.7636636 C35.7097666,10.2403807 35.5960095,9.94461203 35.1182294,9.94461203 C34.492565,9.94461203 34.0034092,10.5020221 34.0034092,11.309698 L34.0034092,13.2776969 L33.0364733,13.2776969 L33.0364733,8.36338745 L32.7065775,8.36338745 L32.7065775,7.47608157 L34.0375363,7.47608157 L34.0034092,9.5123348 L34.0034092,9.5123348 Z M39.6002616,13.2549455 C38.4513143,13.2890726 37.5298813,12.3676396 37.4843784,11.2186923 C37.4843784,11.1845651 37.4843784,11.1049351 37.4843784,11.0708079 C37.4843784,9.77397628 38.3375571,8.8866704 39.4865045,8.8866704 C40.6354518,8.8866704 41.2269891,9.77397628 41.2269891,10.8546693 C41.2269891,10.9684265 41.1928619,11.2641951 41.1928619,11.2641951 L38.4854414,11.2641951 C38.5195686,11.8557324 39.0428515,12.2993853 39.6343888,12.2993853 C40.0780417,12.2993853 40.4875675,12.071871 40.7833361,11.7761024 L41.2269891,12.5496511 C41.1928619,12.6292811 41.1132319,12.6634082 41.0449776,12.6975354 C40.6354518,13.0615583 40.146296,13.2549455 39.6002616,13.2549455 Z M39.4865045,9.77397628 C39.0428515,9.77397628 38.6333257,10.0697449 38.5650714,10.5133978 L40.2714289,10.5133978 C40.2600532,10.1038721 39.8960303,9.77397628 39.4865045,9.77397628 L39.4865045,9.77397628 Z M47.9614132,14.9158001 C45.2994955,14.9158001 43.3656238,12.7657897 43.3656238,10.1038721 C43.3656238,7.44195442 45.3336227,5.40570119 47.8817832,5.40570119 C48.9511005,5.40570119 51.3286252,5.81522698 51.3286252,7.37370012 L51.3286252,8.67053179 L49.8156549,8.67053179 L49.8156549,7.7718502 C49.8156549,7.10068293 48.4050661,6.95279862 47.9614132,6.95279862 C46.2550557,6.95279862 45.0378541,8.24963029 45.0378541,10.1038721 C45.0378541,12.071871 46.3346857,13.436957 48.0410432,13.436957 C49.0762334,13.4710841 50.1114236,12.993304 50.7484637,12.1401253 L51.5220124,13.2549455 C50.7029608,14.3242628 49.372002,14.9499272 47.9614132,14.9158001 Z M55.7765303,15.0636844 C53.8881614,15.0978115 52.3296883,13.5848413 52.2955611,11.6964723 C52.2955611,11.6623452 52.2955611,11.5827152 52.2955611,11.548588 C52.2955611,9.62609197 53.8540343,8.06761882 55.7765303,8.06761882 C57.6990264,8.06761882 59.2574995,9.62609197 59.2574995,11.548588 C59.2916267,13.4710841 57.7786564,15.0295572 55.8902875,15.0636844 C55.8561603,15.0636844 55.8220332,15.0636844 55.7765303,15.0636844 L55.7765303,15.0636844 Z M55.7765303,9.5123348 C54.707213,9.5123348 53.8881614,10.3996407 53.8881614,11.4803337 C53.8881614,11.5144609 53.8881614,11.5599638 53.8881614,11.5599638 C53.8085314,12.6292811 54.627583,13.5279627 55.708276,13.596217 C55.7424032,13.596217 55.787906,13.596217 55.787906,13.596217 C56.8572234,13.5620898 57.7104021,12.674784 57.676275,11.5940909 L57.676275,11.5599638 C57.755905,10.4906464 56.9368534,9.59196482 55.9016632,9.52371052 C55.8561603,9.5123348 55.8220332,9.5123348 55.7765303,9.5123348 L55.7765303,9.5123348 Z M71.4863946,15.0636844 C69.6321529,15.1433144 68.0736797,13.6530956 68.0054254,11.7988538 C68.0054254,11.7192238 68.0054254,11.6509695 68.0054254,11.5713395 C68.0054254,9.50095909 69.4842686,8.05624311 71.4181403,8.05624311 C72.3395734,8.05624311 74.0118037,8.43164175 74.0118037,9.72847341 L74.0118037,10.3996407 L72.5670877,10.3996407 L72.5670877,10.024242 C72.5670877,9.6488434 71.713909,9.54646195 71.4522675,9.54646195 C70.3374473,9.54646195 69.5980257,10.3200107 69.5980257,11.5827152 C69.5980257,12.913674 70.4512044,13.6189684 71.5205218,13.6189684 C72.4078277,13.6189684 72.8856078,13.2094426 73.5226479,12.6975354 L74.1483123,13.9943671 C73.4430179,14.6541586 72.4874577,15.0295572 71.4863946,15.0636844 L71.4863946,15.0636844 Z M78.0729344,15.0636844 C76.1845655,15.0978115 74.6260924,13.5848413 74.5919652,11.6964723 C74.5919652,11.6623452 74.5919652,11.5827152 74.5919652,11.548588 C74.5919652,9.62609197 76.1504384,8.06761882 78.0729344,8.06761882 C79.9954305,8.06761882 81.5539036,9.62609197 81.5539036,11.548588 C81.5880308,13.4710841 80.0750605,15.0295572 78.1866916,15.0636844 C78.1525644,15.0636844 78.1070616,15.0636844 78.0729344,15.0636844 L78.0729344,15.0636844 Z M78.0729344,9.5123348 C77.0036171,9.5123348 76.1845655,10.3996407 76.1845655,11.4803337 C76.1845655,11.5144609 76.1845655,11.5599638 76.1845655,11.5599638 C76.1049355,12.6292811 76.9239871,13.5279627 78.0046801,13.596217 C78.0388073,13.596217 78.0843101,13.596217 78.0843101,13.596217 C79.1536275,13.5620898 80.0068062,12.674784 79.9726791,11.5940909 L79.9726791,11.5599638 C80.0523091,10.4906464 79.2332575,9.59196482 78.1980673,9.52371052 C78.1525644,9.5123348 78.1070616,9.5123348 78.0729344,9.5123348 L78.0729344,9.5123348 Z M91.9626841,8.69328322 L91.9626841,7.10068293 L91.2232626,7.10068293 L91.2232626,5.73559697 L93.5211573,5.73559697 L93.5211573,13.516587 L94.374336,13.516587 L94.374336,14.8475458 L92.9637472,14.8475458 C92.5542214,14.8816729 92.1446956,14.6200315 92.0423141,14.2218814 C91.564534,14.7451643 90.8933668,15.040933 90.1880724,14.9954301 C88.4134606,14.9954301 87.3327676,13.516587 87.3327676,11.5144609 C87.3327676,9.39857764 88.5158421,8.03349167 90.2904538,8.03349167 C90.9274939,8.06761882 91.5190312,8.28375743 91.9626841,8.69328322 L91.9626841,8.69328322 Z M90.483841,9.54646195 C89.6647894,9.54646195 88.9253678,10.2176292 88.9253678,11.5827152 C88.9253678,12.8795469 89.5965351,13.6189684 90.4383381,13.6189684 C91.2118868,13.6189684 91.9968113,13.0615583 91.9968113,11.5827152 C91.9968113,10.4337678 91.4507769,9.54646195 90.483841,9.54646195 L90.483841,9.54646195 Z M45.1857384,18.9200522 C45.6635185,18.328515 46.40294,17.9531164 47.1878645,17.9986192 C48.6325804,17.9986192 49.2582448,18.8517979 49.2582448,20.4443982 L49.2582448,23.1063159 L50.1455507,23.1063159 L50.1455507,24.4031475 L48.6667076,24.4031475 C48.1434246,24.4031475 47.7452746,24.1415061 47.7452746,23.663726 L47.7452746,20.7060397 C47.7452746,19.8869881 47.5973902,19.4092081 46.8920958,19.4092081 C45.8910328,19.4092081 45.1857384,20.3306411 45.1857384,21.4795884 L45.1857384,24.4372747 L43.7068952,24.4372747 L43.7068952,19.4319595 L42.9333465,19.4319595 L42.9333465,18.1351278 L44.2643053,18.1351278 C44.8558426,18.1351278 45.1857384,18.3967693 45.1857384,18.9200522 Z M39.4068745,24.585159 C37.5867598,24.585159 36.1079167,23.140443 36.0737896,21.3203284 C36.0737896,19.5002138 37.5185055,18.0213707 39.3386202,17.9872435 C41.1587348,17.9872435 42.6375779,19.4319595 42.6717051,21.2520741 L42.6717051,21.2862013 C42.7058322,23.060813 41.2611162,24.5510319 39.4865045,24.585159 C39.4865045,24.585159 39.4410016,24.585159 39.4068745,24.585159 Z M39.4068745,19.3978323 C38.4058114,19.4319595 37.6322627,20.2510111 37.6663898,21.217947 C37.6663898,21.2520741 37.6663898,21.2520741 37.6663898,21.297577 C37.6663898,22.4123972 38.4399386,23.220073 39.4068745,23.220073 C40.3738103,23.220073 41.1473591,22.4010215 41.1473591,21.297577 C41.2269891,20.2851382 40.4420646,19.4319595 39.4068745,19.3978323 C39.4410016,19.3978323 39.4410016,19.3978323 39.4068745,19.3978323 L39.4068745,19.3978323 Z M52.7847169,24.585159 C51.897411,24.5510319 51.0442323,24.1073789 50.4526951,23.4020845 L51.2717466,22.4010215 C51.6471453,22.9243044 52.1931797,23.220073 52.8302198,23.2542002 C53.4558842,23.2542002 53.7971557,22.9925587 53.7971557,22.6967901 C53.7971557,22.1735071 52.8757226,21.9573685 52.500324,21.8436114 C51.6812724,21.5478427 50.6119551,21.1041898 50.6119551,19.8414853 C50.6119551,18.4763993 51.9087868,17.9872435 52.9098498,17.9872435 C53.6833985,17.9872435 55.0598602,18.3171393 55.0598602,19.3978323 L55.0598602,20.0234967 L53.7289014,20.0234967 L53.7289014,19.7277281 C53.7289014,19.5798438 53.4672599,19.3182023 52.9098498,19.3182023 C52.3524397,19.3182023 52.0907982,19.5457166 52.0907982,19.7959824 C52.0907982,20.2737625 52.9439769,20.5012768 53.2738727,20.615034 C54.1270514,20.9108026 55.2759988,21.3203284 55.2759988,22.5830329 C55.2646231,23.9594946 54.1156757,24.585159 52.7847169,24.585159 Z M59.3371295,24.585159 C57.5170149,24.585159 56.0381718,23.140443 56.0040446,21.3203284 C56.0040446,19.5002138 57.4487606,18.0213707 59.2688752,17.9872435 C61.0889899,17.9872435 62.567833,19.4319595 62.6019601,21.2520741 L62.6019601,21.2862013 C62.6360873,23.060813 61.1913713,24.5510319 59.4167596,24.585159 C59.4053838,24.585159 59.3712567,24.585159 59.3371295,24.585159 Z M59.3371295,19.3978323 C58.3360665,19.4319595 57.5625178,20.2510111 57.5966449,21.217947 C57.5966449,21.2520741 57.5966449,21.2520741 57.5966449,21.297577 C57.5966449,22.4123972 58.3701937,23.220073 59.3371295,23.220073 C60.3040654,23.220073 61.0776142,22.4010215 61.0776142,21.297577 C61.1572442,20.3306411 60.4064469,19.4774624 59.4508867,19.4092081 C59.4508867,19.3978323 59.3712567,19.3978323 59.3371295,19.3978323 L59.3371295,19.3978323 Z M65.4458892,19.329578 C65.6279007,18.8859251 66.3673223,18.1123764 67.0384895,18.1123764 C67.1863738,18.1123764 67.5162696,18.1465035 67.5162696,18.1465035 L67.5162696,19.6594738 C67.3342582,19.6253467 67.1863738,19.5798438 66.9929867,19.5798438 C65.9577965,19.5798438 65.4800164,20.6491611 65.4800164,21.7981085 L65.4800164,24.425899 L64.0011733,24.425899 L64.0011733,19.4205838 L63.0797402,19.4205838 L63.0797402,18.1237521 L64.5585834,18.1237521 C65.0818663,18.1237521 65.4800164,18.3853936 65.4800164,18.8631737 C65.4458892,19.0224337 65.4458892,19.1816937 65.4458892,19.329578 L65.4458892,19.329578 Z M71.0768688,24.505529 C70.3374473,24.505529 68.7107198,24.2438875 68.7107198,22.0938771 L68.7107198,19.4319595 L67.8916683,19.4319595 L67.8916683,18.1351278 L68.7107198,18.1351278 L68.7107198,16.5084004 L70.1554358,16.5084004 L70.1554358,18.1351278 L71.5205218,18.1351278 L71.5205218,19.4319595 L70.1554358,19.4319595 L70.1554358,21.9914957 C70.1554358,22.9925587 70.7811002,23.1063159 71.1564989,23.1063159 C71.3043832,23.1063159 71.6001518,23.0721887 71.6001518,23.0721887 L71.6001518,24.4372747 C71.4408918,24.4714018 71.2588803,24.505529 71.0768688,24.505529 Z M74.8877338,17.3615791 L73.3747636,17.3615791 L73.3747636,15.803106 L74.8877338,15.803106 L74.8877338,17.3615791 Z M75.5930283,24.4372747 L74.0345551,24.4372747 C73.6591565,24.4372747 73.3633878,24.1415061 73.3633878,23.5158417 L73.3633878,19.4433352 L72.4419548,19.4433352 L72.4419548,18.1465035 L73.9549251,18.1465035 C74.398578,18.1123764 74.8081038,18.408145 74.842231,18.8517979 C74.842231,18.931428 74.842231,18.9996823 74.842231,19.0793123 L74.842231,23.1176916 L75.5816525,23.1176916 L75.5816525,24.4372747 L75.5930283,24.4372747 Z M80.9282392,23.6978531 C80.4504591,24.2893904 79.7110376,24.6192862 78.9602403,24.585159 C77.5951543,24.585159 76.8898599,23.7661074 76.8898599,22.13938 L76.8898599,19.4319595 L76.1163112,19.4319595 L76.1163112,18.1351278 L77.6292815,18.1351278 C78.0388073,18.1351278 78.368703,18.4650236 78.368703,18.8404222 L78.368703,21.8777385 C78.368703,22.6512872 78.5165874,23.1745702 79.2218818,23.1745702 C80.1888177,23.1745702 80.8486092,22.2076343 80.8486092,21.0586869 L80.8486092,18.1351278 L82.3274523,18.1351278 L82.3274523,23.0949402 C82.3274523,23.1290673 82.3274523,23.1290673 82.3615795,23.1290673 L83.0668739,23.1290673 L83.0668739,24.3917718 L81.781418,24.3917718 C81.3718922,24.4714018 81.0078692,24.1642575 80.9282392,23.7661074 C80.9282392,23.7319803 80.9282392,23.6978531 80.9282392,23.6978531 L80.9282392,23.6978531 Z M86.1155659,18.9541794 C86.5592188,18.3967693 87.2303861,18.0327464 87.9356805,18.0327464 C88.7888592,18.0327464 89.3803965,18.3626421 89.6761651,19.1020637 C90.1198181,18.4308964 90.8592396,18.0327464 91.6782912,18.0327464 C93.08888,18.0327464 93.7145444,18.8859251 93.7145444,20.4785254 L93.7145444,23.140443 L94.4084631,23.140443 L94.4084631,24.4031475 L92.1901984,24.4031475 L92.1901984,20.694664 C92.1901984,19.8756124 92.0423141,19.3978323 91.3711469,19.3978323 C90.483841,19.3978323 89.8923037,20.3647682 89.8923037,21.5137156 L89.8923037,24.4031475 L88.4134606,24.4031475 L88.4134606,20.694664 C88.4134606,19.9211153 88.2997034,19.3978323 87.6399119,19.3978323 C86.752606,19.3978323 86.1269416,20.3988954 86.1269416,21.5478427 L86.1269416,24.4031475 L84.6480985,24.4031475 L84.6480985,19.4433352 L83.7266655,19.4433352 L83.7266655,18.1465035 L85.2055086,18.1465035 C85.6491615,18.0668735 86.0586873,18.3740179 86.1269416,18.8176708 C86.1155659,18.8745494 86.1155659,18.9200522 86.1155659,18.9541794 L86.1155659,18.9541794 Z M32.1150403,24.5510319 C29.6351341,24.5510319 27.8150195,22.5489058 27.8150195,20.0348725 C27.8150195,17.5208391 29.6692612,15.6324702 32.0695374,15.6324702 C33.0706004,15.6324702 35.2888651,16.0078689 35.2888651,17.486712 L35.2888651,18.6697865 L33.8441491,18.6697865 L33.8441491,17.8166078 C33.8441491,17.1909434 32.5131903,17.043059 32.1036645,17.043059 C30.5110642,17.043059 29.3621169,18.2261335 29.3621169,19.9666182 C29.3621169,21.8208599 30.5451914,23.0721887 32.1719188,23.0721887 C33.1729819,23.1063159 34.0944149,22.6626629 34.6859522,21.8891142 L35.4253737,22.9243044 C35.4481252,22.9584316 34.5153164,24.5510319 32.1150403,24.5510319 Z" id="Text" fill="#231F20" fill-rule="nonzero"></path>
            <g id="Lightbulb" fill-rule="nonzero">
                <path d="M23.1509757,11.1049351 C24.743576,12.2880096 26.2565463,14.0284942 26.188292,14.9954301 C26.1541649,15.5528402 24.1861659,17.5549663 22.0361555,18.328515 C22.5594385,20.2965139 22.5935656,22.6285358 21.9565255,23.3338302 C21.6266298,23.7092288 19.0443421,23.9481189 16.9398346,23.2428245 C15.4154886,22.6171601 14.516807,22.0369985 13.9252698,20.2396353 C13.3337325,18.4422722 13.3564839,17.3047005 13.2996054,16.1785046 C13.2427268,15.0864358 10.7173177,14.7679158 10.8196992,16.3036375 C10.9220806,17.8393592 12.0141494,18.9883065 12.0255251,20.3192654 C12.0369008,22.29864 10.1371562,23.0266859 9.31810463,23.4134602 C7.64587433,24.1528818 5.57549395,24.5624076 4.87019953,24.0846275 C4.42654659,23.7888589 3.72125218,21.0131841 4.16490512,18.6811622 C2.31066335,18.1578793 0.308537263,17.0544348 0.0127686372,16.121626 C-0.135115676,15.5983431 1.01383168,13.0160554 2.82257058,11.4917095 C1.70775038,9.80810343 0.854571649,7.62396588 1.22997029,6.77078716 C1.45748462,6.2475042 3.93739079,5.0644297 6.26941264,5.0644297 C6.41729696,3.06230362 7.15671852,0.844038924 7.9757701,0.400385985 C8.45355019,0.138744508 11.1268435,0.878166073 12.8673281,2.47076637 C14.2324141,1.02605039 16.1662859,-0.191151267 17.0535918,0.0249873446 C17.5768747,0.138744508 19.169475,2.50489351 19.5334979,4.88241824 C21.455994,4.70040678 23.7197616,5.0644297 24.2771717,5.80385126 C24.5956917,6.1792499 24.3340503,9.023179 23.1509757,11.1049351 Z" id="Path" fill="#E75300"></path>
                <path d="M15.7112572,15.8486088 C17.3038575,16.0306203 18.8964578,14.6996615 20.5686881,15.7007245 C21.1602254,16.0761232 21.7517626,17.1454405 22.0475313,18.328515 C21.3422368,18.6242836 20.4890581,18.7039136 19.7155094,18.5901565 C18.3390477,18.3626421 16.7805746,17.0316833 15.7112572,15.8486088 Z M9.34085607,14.1763785 C8.41942304,15.5414645 8.6696888,17.6232206 7.00883421,18.6242836 C6.41729696,18.9996823 5.3366039,18.9996823 4.1535294,18.6584108 C4.26728656,17.8848621 4.52892804,17.0316833 5.00670813,16.3946432 C5.894014,15.3253259 7.81651007,14.5859043 9.34085607,14.1763785 Z M9.52286753,11.468958 C7.96439439,11.8784838 6.8609499,13.7327256 5.00670813,13.3914541 C4.30141371,13.2776969 3.49373785,12.5382754 2.82257058,11.468958 C3.41410783,10.9456751 4.11940225,10.5020221 4.85882381,10.3541378 C6.18978263,10.1038721 8.1122787,10.7295365 9.52286753,11.468958 Z M11.3771093,9.54646195 C9.93239332,8.84116754 7.93026724,9.5123348 6.70168987,7.98798881 C6.25803693,7.43057871 6.17840691,6.28163135 6.25803693,5.0644297 C7.04296136,5.03030255 7.78238292,5.21231401 8.44217447,5.58771265 C9.63662469,6.2475042 10.7400692,8.06761882 11.3771093,9.54646195 Z M13.9707726,9.28482048 C13.2996054,7.72634733 11.3316064,6.95279862 11.3316064,4.9961754 C11.3316064,4.29088099 12.0027737,3.36944796 12.8559524,2.48214208 C13.4816168,3.00542504 13.8911426,3.59696229 14.1869112,4.33638385 C14.6646913,5.66734267 14.3689227,7.74909877 13.9252698,9.29619619 L13.9707726,9.29619619 L13.9707726,9.28482048 Z M16.7805746,13.436957 C18.1115334,12.5155239 18.486932,10.3655135 20.375301,10.024242 C21.0805954,9.91048488 22.1954156,10.3541378 23.1509757,11.0935594 C22.7755771,11.7988538 22.1499127,12.390391 21.5242483,12.834044 C20.3411738,13.5507141 18.3390477,13.6530956 16.7805746,13.436957 Z M19.5221222,4.88241824 C19.6700065,5.65596695 19.5562494,6.39538852 19.3401108,7.18031295 C18.8964578,8.54539891 17.4176147,9.88773344 16.0866559,10.8091665 C16.5303088,9.18243903 15.4951186,7.36232441 16.7123203,5.84935413 C17.1901004,5.24644116 18.2935449,4.9961754 19.5221222,4.88241824 Z" id="Shape" fill="#AD441D"></path>
                <path d="M10.2622891,24.4714018 C9.93239332,24.3576447 9.67075184,24.1756332 9.48874038,23.8798646 C9.11334174,23.2086973 8.93133028,22.4351486 8.93133028,21.6615999 C8.85170026,19.0679366 5.63237253,17.3615791 5.63237253,12.8112926 C5.63237253,8.51127176 9.70487899,5.40570119 13.072091,5.40570119 C16.4393031,5.40570119 20.5118095,8.51127176 20.5118095,12.8112926 C20.5118095,17.3615791 17.2924818,19.0679366 17.2128518,21.6615999 C17.2469789,22.4806515 17.0308403,23.2542002 16.6213145,23.9594946 C16.4393031,24.2211361 16.2117888,24.4031475 15.9160201,24.5169047 L15.8363901,24.5169047 L10.2622891,24.4714018 L10.2622891,24.4714018 Z" id="Path" fill="#FFD26C"></path>
                <path d="M14.516807,13.914737 C14.6305642,13.7668527 15.43824,13.9488642 16.1890373,13.7327256 C16.4165517,13.6530956 16.5985631,13.5507141 16.7805746,13.436957 C15.5975001,13.2890726 14.7101942,12.993304 14.6646913,12.7316625 C14.6646913,12.5496511 15.4041129,12.1742524 15.8136387,11.4348309 C15.9273958,11.2073165 15.9956501,11.0253051 16.0752802,10.8091665 C15.0742171,11.4803337 14.2210384,11.8443567 14.0390269,11.6623452 C13.8570155,11.4803337 14.2665413,10.7409122 14.1527841,9.92186059 C14.1186569,9.69434627 14.0390269,9.47820765 13.9707726,9.29619619 C13.6408769,10.4451435 13.1972239,11.3324494 12.9355824,11.3324494 C12.753571,11.3324494 12.5260567,10.4792707 11.9345194,9.92186059 C11.7525079,9.77397628 11.5591208,9.66021912 11.3771093,9.54646195 C11.8548894,10.6612822 12.0482766,11.6168423 11.8207622,11.8102295 C11.6728779,11.9239867 10.9675835,11.4348309 10.1940348,11.4007037 C9.96652047,11.4007037 9.75038186,11.4348309 9.52286753,11.4803337 C10.5580577,12.0377438 11.2974793,12.5951539 11.2633521,12.9250497 C11.229225,13.1070612 10.3760463,13.1866912 9.78450901,13.6985984 C9.60249754,13.8464827 9.45461323,13.9943671 9.34085607,14.1763785 C10.4898034,13.914737 11.4112364,13.8464827 11.5591208,14.0967485 C11.6387508,14.27876 11.0358378,14.8702972 10.8879535,15.6893488 C10.8538263,15.9168631 10.8538263,16.1330017 10.8538263,16.3605161 C11.5591208,15.3935802 12.2644152,14.7337886 12.4805538,14.8020429 C12.7080681,14.8816729 12.594311,15.7234759 12.9583339,16.4742732 C13.072091,16.6562847 13.2199754,16.883799 13.3678597,17.0316833 C13.2882297,15.8486088 13.4474897,14.8475458 13.6636283,14.7679158 C13.8797669,14.6882858 14.3347956,15.3935802 15.0742171,15.6893488 C15.2562286,15.7689788 15.4837429,15.8372331 15.6998815,15.8372331 C14.8922057,14.9954301 14.3689227,14.1422514 14.516807,13.914737 Z" id="Path" fill="#FFFFFF"></path>
                <g id="Group" transform="translate(5.6324, 5.3943)" fill="#FFC656">
                    <path d="M10.5111619,13.3778425 C9.74898894,12.8204324 8.50903585,12.4791609 7.73548714,11.6373579 C7.78099,12.5246637 7.83786858,13.4688482 8.29289724,14.8339342 C8.88443449,16.6312973 9.78311608,17.2228346 11.3074621,17.8371233 C11.3188378,17.8371233 11.3188378,17.8371233 11.3302135,17.848499 C11.512225,17.3479675 11.6146064,16.8133088 11.591855,16.2672744 C11.6032307,15.9373786 11.6601093,15.6302343 11.751115,15.32309 C11.5236007,14.5495412 11.1482021,13.8328711 10.5111619,13.3778425 Z" id="Path"></path>
                    <path d="M10.0788847,10.4542834 C10.8979363,11.3643407 12.0013808,12.354028 13.0934496,12.8659352 C13.6053568,12.0582594 14.1286397,11.1709535 14.4699112,10.0902604 C12.9683167,9.54422604 11.5236007,10.6135434 10.0788847,10.4542834 Z" id="Path"></path>
                    <path d="M14.3334026,4.74367373 C12.7863052,5.28970812 12.3767794,7.18945275 11.1482021,8.04263148 C12.3199008,8.21326722 13.7304897,8.19051579 14.8680613,7.87199573 C14.879437,7.72411142 14.8908127,7.57622711 14.8908127,7.41696708 C14.8908127,6.4614069 14.6860498,5.56272531 14.3334026,4.74367373 Z" id="Path"></path>
                    <path d="M13.1617038,2.85530481 C12.4905366,2.05900466 11.6601093,1.39921311 10.7841791,0.921433027 C10.0561333,2.33202186 10.8524334,3.94737358 10.4542834,5.414841 C11.4212192,4.73229801 12.4905366,3.8222407 13.1617038,2.85530481 Z" id="Path"></path>
                    <path d="M8.78205304,0.159260029 C8.32702439,0.0568785819 7.88337145,0 7.43971851,0 C6.89368412,0 6.33627402,0.0796300146 5.77886392,0.238890044 C6.14288684,1.72910889 7.70135999,2.5026576 8.30427296,3.84499214 C8.62279301,2.71879621 8.86168306,1.34233453 8.78205304,0.159260029 Z" id="Path"></path>
                    <path d="M3.85636785,1.06931734 C2.99181341,1.56984886 2.19551326,2.25239184 1.55847314,3.06006771 C2.7756748,3.97012502 4.47065654,3.52647208 5.74473677,4.15213648 C5.30108383,3.11694629 4.62991657,1.92249607 3.85636785,1.06931734 Z" id="Path"></path>
                    <path d="M0.466404371,4.94843662 C0.170635746,5.71060962 0,6.54103692 0,7.41696708 C0,7.63310569 0.0113757164,7.83786858 0.0227514328,8.04263148 C1.50159456,7.90612288 2.52540904,6.43865547 3.87911928,6.08600826 C2.87805624,5.55134959 1.60397601,5.0735695 0.466404371,4.94843662 Z" id="Path"></path>
                    <path d="M0.432277222,10.1130119 C0.78492443,11.1937049 1.30820738,12.0810108 1.82011462,12.8886867 C2.99181341,11.8079936 2.87805624,10.0106304 3.70848354,8.78205304 C2.65054192,9.06644595 1.39921311,9.51009889 0.432277222,10.1130119 Z" id="Path"></path>
                    <path d="M3.25345488,15.8122458 C3.27620632,15.9601301 3.29895775,16.1080144 3.29895775,16.2558987 C3.29895775,16.8588117 3.41271491,17.4617246 3.64022924,18.007759 C3.65160496,17.9963833 3.66298067,17.9963833 3.67435639,17.9963833 C4.49340797,17.609609 6.3931526,16.8815631 6.38177689,14.9021885 C6.37040117,13.5939811 5.33521098,12.4677852 5.22145382,10.9661906 C4.43652939,12.0241322 3.36721205,13.8214954 3.25345488,15.8122458 Z" id="Path"></path>
                </g>
                <path d="M15.8136387,27.0650652 L15.8136387,27.4404638 C16.1094073,27.474591 16.2914188,27.7021053 16.2914188,27.9978739 C16.3255459,28.2595154 16.1094073,28.475654 15.8477658,28.5211569 L15.8136387,28.5211569 L13.9935241,28.998937 C14.1072812,29.1126941 14.1755355,29.2947056 14.1755355,29.4425899 C14.1755355,29.7383585 13.9935241,29.9658729 13.6977554,30 L12.3667966,30 C12.071028,29.9658729 11.8435137,29.6701042 11.8890165,29.3288327 C11.9231437,29.1809484 12.0027737,29.0330641 12.150658,28.9534341 L10.2622891,28.5097812 C9.96652047,28.4301511 9.78450901,28.1343825 9.81863615,27.8386139 C9.8527633,27.6110996 10.0461505,27.4632152 10.2622891,27.3949609 L14.7443213,27.3949609 L14.7443213,27.2812038 L10.2622891,27.0195623 C9.96652047,26.9399323 9.78450901,26.6441637 9.81863615,26.348395 C9.8527633,26.1208807 10.0461505,25.9729964 10.2622891,25.9047421 L14.7101942,25.9047421 L14.7101942,25.7909849 L10.2622891,25.5293435 C9.96652047,25.4497134 9.78450901,25.1539448 9.81863615,24.8581762 C9.8527633,24.6306619 10.0461505,24.4827776 10.2622891,24.4145233 L15.8136387,24.4145233 C16.1094073,24.4941533 16.2914188,24.7899219 16.2572916,25.0856905 C16.2231645,25.3132049 16.0297773,25.4610892 15.8136387,25.5293435 L15.7795115,25.5293435 L15.7795115,25.9047421 L15.8136387,25.9047421 C16.1094073,25.9388693 16.2914188,26.1663836 16.2914188,26.4621522 C16.3027945,26.8034237 16.1094073,27.0650652 15.8136387,27.0650652 Z" id="Path" fill="#00758D"></path>
            </g>
        </g>
    </g>
</svg>