<svg width="24" height="24" viewBox="0 0 24 24" xmlns="http://www.w3.org/2000/svg"><path d="M19,14 L6,14 C3.79,14 2,12.21 2,10 C2,7.79 3.79,6 6,6 L6.71,6 C7.37,3.69 9.48,2 12,2 C15.04,2 17.5,4.46 17.5,7.5 L17.5,8 L19,8 C20.66,8 22,9.34 22,11 C22,12.66 20.66,14 19,14 Z" fill="currentColor" fill-rule="evenodd" opacity="0.3"/><path d="M20.2103469,17.6729015 C20.6682117,17.9817352 20.7890253,18.6032672 20.4801916,19.061132 L17.4475191,23.5572538 C17.1386854,24.0151186 16.5171535,24.1359322 16.0592887,23.8270985 C15.6014239,23.5182648 15.4806103,22.8967328 15.789444,22.438868 L18.8221165,17.9427462 C19.1309502,17.4848814 19.7524821,17.3640678 20.2103469,17.6729015 Z M13.0703469,17.6729015 C13.5282117,17.9817352 13.6490253,18.6032672 13.3401916,19.061132 L10.3075191,23.5572538 C9.99868544,24.0151186 9.37715348,24.1359322 8.91928867,23.8270985 C8.46142387,23.5182648 8.34061029,22.8967328 8.649444,22.438868 L11.6821165,17.9427462 C11.9909502,17.4848814 12.6124821,17.3640678 13.0703469,17.6729015 Z M5.94034694,17.6729015 C6.39821175,17.9817352 6.51902532,18.6032672 6.21019161,19.061132 L3.17751915,23.5572538 C2.86868544,24.0151186 2.24715348,24.1359322 1.78928867,23.8270985 C1.33142387,23.5182648 1.21061029,22.8967328 1.519444,22.438868 L4.55211647,17.9427462 C4.86095018,17.4848814 5.48248213,17.3640678 5.94034694,17.6729015 Z" fill="currentColor" fill-rule="nonzero" opacity="0.6"/><path d="M19.35,6.04 C18.67,2.59 15.64,0 12,0 C9.11,0 6.6,1.64 5.35,4.04 C2.34,4.36 0,6.91 0,10 C0,13.31 2.69,16 6,16 L19,16 C21.76,16 24,13.76 24,11 C24,8.36 21.95,6.22 19.35,6.04 Z M19,14 L6,14 C3.79,14 2,12.21 2,10 C2,7.79 3.79,6 6,6 L6.71,6 C7.37,3.69 9.48,2 12,2 C15.04,2 17.5,4.46 17.5,7.5 L17.5,8 L19,8 C20.66,8 22,9.34 22,11 C22,12.66 20.66,14 19,14 Z" fill="currentColor" fill-rule="nonzero"/></svg>
