<svg width="24" height="24" viewBox="0 0 24 24" xmlns="http://www.w3.org/2000/svg"><path d="M6,6 L14,13.9998932 L6,14 C3.79,14 2,12.21 2,10 C2,7.79 3.79,6 6,6 Z M12,2 C15.04,2 17.5,4.46 17.5,7.5 L17.5,8 L19,8 C20.66,8 22,9.34 22,11 C22,12.66 20.66,14 19,14 L16.828,14 L7.36886212,4.5392857 C8.34606423,3.01160542 10.0503226,2 12,2 Z" fill="currentColor" fill-rule="evenodd" opacity="0.3"/><path d="M4.94034694,17.6729015 C5.39821175,17.9817352 5.51902532,18.6032672 5.21019161,19.061132 L2.17751915,23.5572538 C1.86868544,24.0151186 1.24715348,24.1359322 0.789288674,23.8270985 C0.331423865,23.5182648 0.210610292,22.8967328 0.519444004,22.438868 L3.55211647,17.9427462 C3.86095018,17.4848814 4.48248213,17.3640678 4.94034694,17.6729015 Z M10.3636803,17.6729015 C10.8215451,17.9817352 10.9423587,18.6032672 10.6335249,19.061132 L7.60085248,23.5572538 C7.29201877,24.0151186 6.67048682,24.1359322 6.21262201,23.8270985 C5.7547572,23.5182648 5.63394362,22.8967328 5.94277734,22.438868 L8.9754498,17.9427462 C9.28428351,17.4848814 9.90581547,17.3640678 10.3636803,17.6729015 Z M2.80761184,2.80761184 L21.1923882,21.1923882 L19.7781746,22.6066017 L19.366,22.194 L18.4475191,23.5572538 C18.1386854,24.0151186 17.5171535,24.1359322 17.0592887,23.8270985 C16.6014239,23.5182648 16.4806103,22.8967328 16.789444,22.438868 L17.925,20.753 L16.1225384,18.9488216 C16.1033409,18.9871367 16.0814632,19.0246538 16.0568583,19.061132 L13.0241858,23.5572538 C12.7153521,24.0151186 12.0938201,24.1359322 11.6359553,23.8270985 C11.1780905,23.5182648 11.057277,22.8967328 11.3661107,22.438868 L14.3987831,17.9427462 C14.4986082,17.7947495 14.6311037,17.6819676 14.7801822,17.6075276 L13.172,16 L6,16 C2.76522727,16 0.122592975,13.4308833 0.00414408809,10.2246968 L0,10 C0,8.04594286 0.935779265,6.30783478 2.38500694,5.21306447 L1.39339828,4.22182541 L2.80761184,2.80761184 Z M12,0 C15.64,0 18.67,2.59 19.35,6.04 C21.95,6.22 24,8.36 24,11 C24,13.76 21.76,16 19,16 L18.828,16 L16.828,13.9998932 L19,14 C20.6007143,14 21.9038776,12.7540051 21.9949189,11.1765862 L22,11 C22,9.34 20.66,8 19,8 L17.5,8 L17.5,7.5 C17.5,4.46 15.04,2 12,2 C10.0503226,2 8.34606423,3.01160542 7.36886212,4.5392857 L5.93048874,3.10133767 C7.29276703,1.22258441 9.50474264,0 12,0 Z M3.81852668,6.64619336 C2.7235318,7.35964918 2,8.59494097 2,10 C2,12.21 3.79,14 6,14 L11.172,14 L3.81852668,6.64619336 Z" fill="currentColor" fill-rule="nonzero"/></svg>
