<svg width="24" height="24" viewBox="0 0 24 24" xmlns="http://www.w3.org/2000/svg"><path d="M19,14 L6,14 C3.79,14 2,12.21 2,10 C2,7.79 3.79,6 6,6 L6.71,6 C7.37,3.69 9.48,2 12,2 C15.04,2 17.5,4.46 17.5,7.5 L17.5,8 L19,8 C20.66,8 22,9.34 22,11 C22,12.66 20.66,14 19,14 Z" fill="currentColor" fill-rule="evenodd" opacity="0.3"/><path d="M21.2103469,17.6729015 C21.6682117,17.9817352 21.7890253,18.6032672 21.4801916,19.061132 L18.4475191,23.5572538 C18.1386854,24.0151186 17.5171535,24.1359322 17.0592887,23.8270985 C16.6014239,23.5182648 16.4806103,22.8967328 16.789444,22.438868 L19.8221165,17.9427462 C20.1309502,17.4848814 20.7524821,17.3640678 21.2103469,17.6729015 Z M10.3636803,17.6729015 C10.8215451,17.9817352 10.9423587,18.6032672 10.6335249,19.061132 L7.60085248,23.5572538 C7.29201877,24.0151186 6.67048682,24.1359322 6.21262201,23.8270985 C5.7547572,23.5182648 5.63394362,22.8967328 5.94277734,22.438868 L8.9754498,17.9427462 C9.28428351,17.4848814 9.90581547,17.3640678 10.3636803,17.6729015 Z M15.7870136,17.6729015 C16.2448784,17.9817352 16.365692,18.6032672 16.0568583,19.061132 L13.0241858,23.5572538 C12.7153521,24.0151186 12.0938201,24.1359322 11.6359553,23.8270985 C11.1780905,23.5182648 11.057277,22.8967328 11.3661107,22.438868 L14.3987831,17.9427462 C14.7076168,17.4848814 15.3291488,17.3640678 15.7870136,17.6729015 Z M4.94034694,17.6729015 C5.39821175,17.9817352 5.51902532,18.6032672 5.21019161,19.061132 L2.17751915,23.5572538 C1.86868544,24.0151186 1.24715348,24.1359322 0.789288674,23.8270985 C0.331423865,23.5182648 0.210610292,22.8967328 0.519444004,22.438868 L3.55211647,17.9427462 C3.86095018,17.4848814 4.48248213,17.3640678 4.94034694,17.6729015 Z M19.35,6.04 C18.67,2.59 15.64,0 12,0 C9.11,0 6.6,1.64 5.35,4.04 C2.34,4.36 0,6.91 0,10 C0,13.31 2.69,16 6,16 L19,16 C21.76,16 24,13.76 24,11 C24,8.36 21.95,6.22 19.35,6.04 Z M19,14 L6,14 C3.79,14 2,12.21 2,10 C2,7.79 3.79,6 6,6 L6.71,6 C7.37,3.69 9.48,2 12,2 C15.04,2 17.5,4.46 17.5,7.5 L17.5,8 L19,8 C20.66,8 22,9.34 22,11 C22,12.66 20.66,14 19,14 Z" fill="currentColor" fill-rule="nonzero"/></svg>
