<svg width="24" height="24" viewBox="0 0 24 24" xmlns="http://www.w3.org/2000/svg"><polygon fill="currentColor" fill-rule="evenodd" opacity="0.25" points="17.25 24 23.75 24 23.75 0 17.25 0"/><path d="M21.75,24 L23.75,24 L23.75,22 L21.75,22 L21.75,24 Z M17.25,24 L19.25,24 L19.25,22 L17.25,22 L17.25,24 Z M17.25,20.333 L19.25,20.333 L19.25,18.333 L17.25,18.333 L17.25,20.333 Z M17.25,16.667 L19.25,16.667 L19.25,14.667 L17.25,14.667 L17.25,16.667 Z M17.25,13 L19.25,13 L19.25,11 L17.25,11 L17.25,13 Z M17.25,9.333 L19.25,9.333 L19.25,7.333 L17.25,7.333 L17.25,9.333 Z M17.25,5.667 L19.25,5.667 L19.25,3.667 L17.25,3.667 L17.25,5.667 Z M17.25,2 L19.25,2 L19.25,-0.001 L17.25,-0.001 L17.25,2 Z M21.75,2 L23.75,2 L23.75,-0.001 L21.75,-0.001 L21.75,2 Z M21.75,20.333 L23.75,20.333 L23.75,18.333 L21.75,18.333 L21.75,20.333 Z M21.75,16.667 L23.75,16.667 L23.75,14.667 L21.75,14.667 L21.75,16.667 Z M21.75,13 L23.75,13 L23.75,11 L21.75,11 L21.75,13 Z M21.75,9.334 L23.75,9.334 L23.75,7.333 L21.75,7.333 L21.75,9.334 Z M21.75,5.667 L23.75,5.667 L23.75,3.666 L21.75,3.666 L21.75,5.667 Z M8.75,24 L15.25,24 L15.25,7.33 L8.75,7.33 L8.75,24 Z M0.25,24 L6.75,24 L6.75,14.67 L0.25,14.67 L0.25,24 Z" fill="currentColor" fill-rule="evenodd"/></svg>
