<svg width="24" height="24" viewBox="0 0 24 24" xmlns="http://www.w3.org/2000/svg"><path d="M19.35,6.04 C18.67,2.59 15.64,0 12,0 C9.11,0 6.6,1.64 5.35,4.04 C2.34,4.36 0,6.91 0,10 C0,13.31 2.69,16 6,16 L19,16 C21.76,16 24,13.76 24,11 C24,8.36 21.95,6.22 19.35,6.04 Z" fill="currentColor" fill-rule="nonzero" opacity="0.15"/><path d="M20.2103469,17.6729015 C20.6682117,17.9817352 20.7890253,18.6032672 20.4801916,19.061132 L17.4475191,23.5572538 C17.1386854,24.0151186 16.5171535,24.1359322 16.0592887,23.8270985 C15.6014239,23.5182648 15.4806103,22.8967328 15.789444,22.438868 L18.8221165,17.9427462 C19.1309502,17.4848814 19.7524821,17.3640678 20.2103469,17.6729015 Z M13.0703469,17.6729015 C13.5282117,17.9817352 13.6490253,18.6032672 13.3401916,19.061132 L10.3075191,23.5572538 C9.99868544,24.0151186 9.37715348,24.1359322 8.91928867,23.8270985 C8.46142387,23.5182648 8.34061029,22.8967328 8.649444,22.438868 L11.6821165,17.9427462 C11.9909502,17.4848814 12.6124821,17.3640678 13.0703469,17.6729015 Z M5.94034694,17.6729015 C6.39821175,17.9817352 6.51902532,18.6032672 6.21019161,19.061132 L3.17751915,23.5572538 C2.86868544,24.0151186 2.24715348,24.1359322 1.78928867,23.8270985 C1.33142387,23.5182648 1.21061029,22.8967328 1.519444,22.438868 L4.55211647,17.9427462 C4.86095018,17.4848814 5.48248213,17.3640678 5.94034694,17.6729015 Z" fill="currentColor" fill-rule="nonzero" opacity="0.6"/><path d="M12.3398656,0.00762827988 L11.9783,-0.0005 L11.9523,0.5715 L12.0003,1.9995 C12.6043,1.9995 13.1983,2.0965 13.7643,2.2885 L14.4053,0.3935 C13.7435857,0.169785714 13.0546878,0.0401122449 12.3398656,0.00762827988 Z M9.84195741,2.4399537 L10.1293,2.3265 L9.4473,0.4465 C8.6523,0.7345 7.9163,1.1525 7.2613,1.6895 L8.5283,3.2375 C8.9283,2.91 9.36927222,2.64222222 9.84195741,2.4399537 Z M18.3123,3.4475 C17.8553,2.7355 17.2853,2.1105 16.6193,1.5895 L15.3863,3.1645 C15.8763,3.5475 16.2943,4.0055 16.6293,4.5275 L18.3123,3.4475 Z M5.73667037,6.00816667 L6.0083,5.9995 L6.6763,5.9995 L6.9323,5.3825 C7.0383,5.1245 7.1683,4.8715 7.3163,4.6285 L5.6083,3.5875 C5.5193,3.7335 5.4353,3.8825 5.3563,4.0335 C5.1753,4.0535 4.9943,4.0815 4.8163,4.1165 L5.2083,6.0775 C5.38096667,6.04283333 5.55718889,6.01972222 5.73667037,6.00816667 Z M3.4661688,6.90362828 L3.6553,6.7575 L2.4823,5.1385 C1.7973,5.6345 1.2353,6.2555 0.8103,6.9855 L2.5393,7.9915 C2.7793,7.58007143 3.09644286,7.20758163 3.4661688,6.90362828 Z M23.5973,9.0305 C23.2553,8.2255 22.7023,7.5225 21.9993,6.9965 L20.8003,8.5965 C21.2213,8.9125 21.5523,9.3335 21.7583,9.8145 L23.5973,9.0305 Z M2.1903,11.2235 C2.0643,10.8295 2.0003,10.4175 2.0003,9.9995 C2.0003,9.8535 2.0083,9.7095 2.0233,9.5675 L0.0333,9.3585 C0.0113,9.5685 0.0003,9.7835 0.0003,9.9995 C0.0003,10.6255 0.0963,11.2435 0.2863,11.8345 L2.1903,11.2235 Z M23.9235702,11.8759321 L23.9663,11.5875 L21.9793,11.3535 C21.9183,11.8755 21.7193,12.3725 21.4063,12.7935 L23.0083,13.9905 C23.4740778,13.3665 23.7873617,12.6405741 23.9235702,11.8759321 Z M4.3563,13.6475 C3.8433,13.4175 3.3923,13.0865 3.0153,12.6645 L1.5243,13.9975 C2.0893,14.6295 2.7653,15.1255 3.5343,15.4725 L4.3563,13.6475 Z M8.0693,13.9995 L5.9763,13.9995 L6.0003,15.9995 L8.0693,15.9995 L8.0693,13.9995 Z M10.1623,15.9995 L12.2553,15.9995 L12.2553,13.9995 L10.1623,13.9995 L10.1623,15.9995 Z M14.3483,15.9995 L16.4413,15.9995 L16.4413,13.9995 L14.3483,13.9995 L14.3483,15.9995 Z M20.7073087,15.7006895 L20.9783,15.5935 L20.1873,13.7555 C19.8123,13.9175 19.4123,13.9995 19.0003,13.9995 L18.5353,13.9995 L18.5353,15.9995 L19.0003,15.9995 C19.5883,15.9995 20.1608714,15.8988469 20.7073087,15.7006895 Z M17.3493,6.2365 L19.2993,5.7855 L19.3473,6.0115 C19.4293,6.0175 19.5103,6.0245 19.5923,6.0345 L19.3563,8.0205 C19.2393,8.0065 19.1203,7.9995 19.0003,7.9995 L17.5443,7.9995 L17.4773,7.0715 C17.4573,6.7955 17.4143,6.5155 17.3493,6.2365 Z" fill="currentColor" fill-rule="evenodd"/></svg>
