<svg width="24" height="24" viewBox="0 0 24 24" xmlns="http://www.w3.org/2000/svg"><path d="M7.84424804,2.73909449 L7.72170483,3.90714449 C7.6823677,4.2860639 7.64456123,4.65465758 7.60834546,5.01324012 C4.28661447,6.64022275 2,10.0530777 2,14 C2,15.7873724 2.46843629,17.500508 3.34465481,19.0008275 L20.6553452,19.0008275 C21.5315637,17.500508 22,15.7873724 22,14 C22,8.83347626 18.0819259,4.58206776 13.0549913,4.05498807 C12.740866,3.40621953 12.4078215,2.72157103 12.054808,2.00061956 L12,2 C18.627417,2 24,7.372583 24,14 C24,16.6127317 23.1650044,19.0304397 21.7473099,21.0008275 L2.25269008,21.0008275 C0.834995565,19.0304397 0,16.6127317 0,14 C0,8.83351177 3.26501686,4.42960908 7.84424804,2.73909449 Z M9.91622187,2.18230696 L10.5168696,3.40879924 C13.2959414,9.10545752 14.7751259,12.4622096 14.9544233,13.4790555 C15.242133,15.1107384 14.1526274,16.6667135 12.5209445,16.9544233 C10.8892616,17.242133 9.33328646,16.1526274 9.04557674,14.5209445 C8.85377026,13.4331559 9.1439853,9.32027674 9.91622187,2.18230696 Z M12,13 C11.4477153,13 11,13.4477153 11,14 C11,14.5522847 11.4477153,15 12,15 C12.5522847,15 13,14.5522847 13,14 C13,13.4477153 12.5522847,13 12,13 Z" fill="currentColor" fill-rule="nonzero"/></svg>
