<svg width="24" height="24" viewBox="0 0 24 24" xmlns="http://www.w3.org/2000/svg"><path d="M23.9501197,12.898483 L22.8533555,12.4784892 C22.4976522,12.3425806 22.151674,12.2107695 21.814942,12.0830806 C20.921728,7.47679014 16.8668879,4 12,4 C6.4771525,4 2,8.4771525 2,14 C2,15.7873724 2.46843629,17.500508 3.34465481,19.0008275 L20.6553452,19.0008275 C20.9190246,18.5493381 21.145776,18.0785766 21.3339464,17.5923193 C22.040836,17.4575372 22.7889745,17.3129208 23.5774143,17.1583953 C23.1994131,18.5572651 22.5719356,19.8547186 21.7473099,21.0008275 L2.25269008,21.0008275 C0.834995565,19.0304397 9.9475983e-14,16.6127317 9.9475983e-14,14 C9.9475983e-14,7.372583 5.372583,2 12,2 C18.2560634,2 23.3939771,6.78736811 23.9501197,12.898483 Z M12.2614672,11.0114159 C13.3618335,11.1076855 17.2594566,12.4525031 23.9543364,15.0458689 C16.9108336,16.4372819 12.8388991,17.0848537 11.7385328,16.9885841 C10.0879834,16.8441797 8.86701154,15.3890822 9.01141591,13.7385328 C9.15582027,12.0879834 10.6109178,10.8670115 12.2614672,11.0114159 Z M12,13 C11.4477153,13 11,13.4477153 11,14 C11,14.5522847 11.4477153,15 12,15 C12.5522847,15 13,14.5522847 13,14 C13,13.4477153 12.5522847,13 12,13 Z" fill="currentColor" fill-rule="nonzero"/></svg>
