<svg width="24" height="24" viewBox="0 0 24 24" xmlns="http://www.w3.org/2000/svg"><path d="M0.419909122,17.1581187 L1.57501503,17.3827673 C1.94965545,17.4551417 2.31403391,17.5250186 2.66854917,17.5924311 C2.85422404,18.0785766 3.08097541,18.5493381 3.34465479,19.0008275 L20.6553452,19.0008275 C21.5315637,17.500508 22,15.7873724 22,14 C22,8.4771525 17.5228475,4 12,4 C7.13311207,4 3.07827198,7.47679014 2.1837253,12.0821249 C1.51039467,12.3389152 0.799566554,12.61093 0.0508610767,12.8996615 C0.605462817,6.78789002 5.74359559,2 12,2 C18.627417,2 24,7.372583 24,14 C24,16.6127317 23.1650044,19.0304397 21.7473099,21.0008275 L2.25269008,21.0008275 C1.42806444,19.8547186 0.800586891,18.5572651 0.419909122,17.1581187 Z M12.2614672,16.9885841 L12.1010892,16.9969226 C10.8014024,17.027137 6.78292716,16.3767857 0.0456636229,15.0458689 C6.74054344,12.4525031 10.6381665,11.1076855 11.7385328,11.0114159 C13.3890822,10.8670115 14.8441797,12.0879834 14.9885841,13.7385328 C15.1329885,15.3890822 13.9120166,16.8441797 12.2614672,16.9885841 Z M12,13 C11.4477153,13 11,13.4477153 11,14 C11,14.5522847 11.4477153,15 12,15 C12.5522847,15 13,14.5522847 13,14 C13,13.4477153 12.5522847,13 12,13 Z" fill="currentColor" fill-rule="nonzero"/></svg>
