<svg width="24" height="24" viewBox="0 0 24 24" xmlns="http://www.w3.org/2000/svg"><path d="M19.6712058,4.77178403 L18.5982361,5.24990573 C18.2504768,5.40529538 17.9125054,5.55679035 17.5839943,5.70465934 C15.9895986,4.6278057 14.0681152,4 12,4 C6.4771525,4 2,8.4771525 2,14 C2,15.7873724 2.46843629,17.500508 3.34465481,19.0008275 L20.6553452,19.0008275 C21.5315637,17.500508 22,15.7873724 22,14 C22,12.554326 21.6932274,11.1803026 21.1412284,9.93947587 C21.5457737,9.34345288 21.9722724,8.71255333 22.4202331,8.0461968 C23.4255118,9.79983581 24,11.8328284 24,14 C24,16.6127317 23.1650044,19.0304397 21.7473099,21.0008275 L2.25269008,21.0008275 C0.834995565,19.0304397 0,16.6127317 0,14 C0,7.372583 5.372583,2 12,2 C14.917274,2 17.5914103,3.04099579 19.6712058,4.77178403 Z M21.1925333,6.28654868 L20.4306837,7.41997104 C16.8867688,12.6750469 14.7193285,15.6344343 13.9283628,16.2981333 C12.6591388,17.3631387 10.7668721,17.1975868 9.70186667,15.9283628 C8.63686129,14.6591388 8.80241318,12.7668721 10.0716372,11.7018667 C10.9177865,10.9918631 14.6247519,9.18675709 21.1925333,6.28654868 Z M12,13 C11.4477153,13 11,13.4477153 11,14 C11,14.5522847 11.4477153,15 12,15 C12.5522847,15 13,14.5522847 13,14 C13,13.4477153 12.5522847,13 12,13 Z" fill="currentColor" fill-rule="nonzero"/></svg>
