<svg width="24" height="24" viewBox="0 0 24 24" xmlns="http://www.w3.org/2000/svg"><path d="M0.171276431,11.9683147 L1.12211612,12.6599326 C1.43085271,12.8837919 1.73145882,13.1010419 2.02417291,13.3118944 C2.00787628,13.5385499 2,13.7683551 2,14 C2,15.7873724 2.46843629,17.500508 3.34465481,19.0008275 L20.6553452,19.0008275 C21.5315637,17.500508 22,15.7873724 22,14 C22,8.4771525 17.5228475,4 12,4 C8.67803984,4 5.73440705,5.61981205 3.91584734,8.11269045 C3.19672657,8.06155527 2.43646157,8.00759725 1.63468155,7.95277946 C3.71489643,4.39168314 7.57814445,2 12,2 C18.627417,2 24,7.372583 24,14 C24,16.6127317 23.1650044,19.0304397 21.7473099,21.0008275 L2.25269008,21.0008275 C0.834995565,19.0304397 0,16.6127317 0,14 C0,13.3075054 0.058658011,12.6287111 0.171276431,11.9683147 Z M0.723688551,9.89575828 L2.0861859,9.9888282 C8.40917255,10.4304106 12.0557974,10.8277753 13.0260604,11.1809221 C14.5829941,11.7475997 15.3857554,13.4691267 14.8190779,15.0260604 C14.2524003,16.5829941 12.5308733,17.3857554 10.9739396,16.8190779 C9.93598376,16.4412928 6.51923342,14.1335196 0.723688551,9.89575828 Z M12,13 C11.4477153,13 11,13.4477153 11,14 C11,14.5522847 11.4477153,15 12,15 C12.5522847,15 13,14.5522847 13,14 C13,13.4477153 12.5522847,13 12,13 Z" fill="currentColor" fill-rule="nonzero"/></svg>
