<svg width="24" height="24" viewBox="0 0 24 24" xmlns="http://www.w3.org/2000/svg"><path d="M19,14 L6,14 C3.79,14 2,12.21 2,10 C2,7.79 3.79,6 6,6 L6.71,6 C7.37,3.69 9.48,2 12,2 C15.04,2 17.5,4.46 17.5,7.5 L17.5,8 L19,8 C20.66,8 22,9.34 22,11 C22,12.66 20.66,14 19,14 Z" fill="currentColor" fill-rule="evenodd" opacity="0.3"/><path d="M19.35,6.04 C18.67,2.59 15.64,0 12,0 C9.11,0 6.6,1.64 5.35,4.04 C2.34,4.36 0,6.91 0,10 C0,13.31 2.69,16 6,16 L19,16 C21.76,16 24,13.76 24,11 C24,8.36 21.95,6.22 19.35,6.04 Z M19,14 L6,14 C3.79,14 2,12.21 2,10 C2,7.79 3.79,6 6,6 L6.71,6 C7.37,3.69 9.48,2 12,2 C15.04,2 17.5,4.46 17.5,7.5 L17.5,8 L19,8 C20.66,8 22,9.34 22,11 C22,12.66 20.66,14 19,14 Z" fill="currentColor" fill-rule="nonzero"/><path d="M13,19 C13,19.5522847 12.5522847,20 12,20 L1,20 C0.44771525,20 0,19.5522847 0,19 C0,18.4477153 0.44771525,18 1,18 L12,18 C12.5522847,18 13,18.4477153 13,19 Z M24,19 C24,19.5522847 23.5522847,20 23,20 L17,20 C16.4477153,20 16,19.5522847 16,19 C16,18.4477153 16.4477153,18 17,18 L23,18 C23.5522847,18 24,18.4477153 24,19 Z M8,23 C8,23.5522847 7.55228475,24 7,24 L1,24 C0.44771525,24 0,23.5522847 0,23 C0,22.4477153 0.44771525,22 1,22 L7,22 C7.55228475,22 8,22.4477153 8,23 Z M24,23 C24,23.5522847 23.5522847,24 23,24 L12,24 C11.4477153,24 11,23.5522847 11,23 C11,22.4477153 11.4477153,22 12,22 L23,22 C23.5522847,22 24,22.4477153 24,23 Z" fill="currentColor" fill-rule="nonzero" opacity="0.6"/></svg>
