<svg width="24" height="24" viewBox="0 0 24 24" xmlns="http://www.w3.org/2000/svg"><path d="M13.5,10.5 C15.6876193,10.5 17.5505787,12.0488767 17.9690025,14.1717618 L18.2651833,15.6744441 L19.7931191,15.7802243 C21.038808,15.8664643 22,16.8850409 22,18.125 C22,19.4354305 20.9354305,20.5 19.625,20.5 L8.25,20.5 C6.4583195,20.5 5,19.0416805 5,17.25 C5,15.5883252 6.25660306,14.197728 7.8926831,14.0237926 L8.95950114,13.9103767 L9.45507817,12.9588688 C10.2359301,11.4596331 11.7835074,10.5 13.5,10.5 Z M10.5,3.5 C12.2164926,3.5 13.7640699,4.4596331 14.5449218,5.95886884 L15.0404989,6.91037674 L16.1073169,7.02379261 C17.7433969,7.19772803 19,8.58832517 19,10.25 C19,10.6000985 18.9443184,10.9374686 18.8413482,11.2537171 C17.6518042,9.5848679 15.7036568,8.5 13.5,8.5 C10.97125,8.5 8.775,9.935 7.68125,12.035 C6.4777293,12.162949 5.39662536,12.6983449 4.5773699,13.5000861 L4.375,13.5000861 C3.0645695,13.5000861 2,12.4354305 2,11.125 C2,9.88504088 2.96119202,8.86646426 4.20688091,8.78022426 L5.73481666,8.67444409 L6.03099751,7.17176183 C6.44942125,5.04887666 8.31238066,3.5 10.5,3.5 Z" fill="currentColor" fill-rule="nonzero" opacity="0.3"/><path d="M19.869089,13.5027883 L19.8550748,13.4460985 C19.8833477,13.5579368 19.9087669,13.6709312 19.93125,13.785 C22.20625,13.9425 24,15.815 24,18.125 C24,20.54 22.04,22.5 19.625,22.5 L8.25,22.5 C5.35375,22.5 3,20.14625 3,17.25 C3,16.5702757 3.12940659,15.9204145 3.36500185,15.3239124 L3.3444113,15.3768891 C1.42640869,14.9142856 0,13.1852081 0,11.125 C0,8.815 1.79375,6.9425 4.06875,6.785 C4.66375,3.76625 7.315,1.5 10.5,1.5 C13.02875,1.5 15.225,2.935 16.31875,5.035 C18.9525,5.315 21,7.54625 21,10.25 C21,11.4777385 20.5770393,12.6079916 19.869089,13.5027883 Z M13.5,10.5 C11.7835074,10.5 10.2359301,11.4596331 9.45507817,12.9588688 L8.95950114,13.9103767 L7.8926831,14.0237926 C6.25660306,14.197728 5,15.5883252 5,17.25 C5,19.0416805 6.4583195,20.5 8.25,20.5 L19.625,20.5 C20.9354305,20.5 22,19.4354305 22,18.125 C22,16.8850409 21.038808,15.8664643 19.7931191,15.7802243 L18.2651833,15.6744441 L17.9690025,14.1717618 C17.5505787,12.0488767 15.6876193,10.5 13.5,10.5 Z M18.7118361,11.0791873 L18.8401747,11.2532344 C18.9443184,10.9374686 19,10.6000985 19,10.25 C19,8.58832517 17.7433969,7.19772803 16.1073169,7.02379261 L15.0404989,6.91037674 L14.5449218,5.95886884 C13.7640699,4.4596331 12.2164926,3.5 10.5,3.5 C8.31238066,3.5 6.44942125,5.04887666 6.03099751,7.17176183 L5.73481666,8.67444409 L4.20688091,8.78022426 C2.96119202,8.86646426 2,9.88504088 2,11.125 C2,12.4354305 3.0645695,13.5000861 4.375,13.5000861 L4.5773699,13.5000861 C5.39662536,12.6983449 6.4777293,12.162949 7.68125,12.035 C8.775,9.935 10.97125,8.5 13.5,8.5 C15.6260617,8.5 17.5142912,9.50981235 18.7118361,11.0791873 Z" fill="currentColor" fill-rule="nonzero"/></svg>
