<svg width="24" height="24" viewBox="0 0 24 24" xmlns="http://www.w3.org/2000/svg"><path d="M2.96852312,10.6179029 C3.34962303,11.1707292 3.82927078,11.650377 4.38209707,12.0314769 L2.90380592,13.5104076 L1.48959236,12.0961941 L2.96852312,10.6179029 Z M7.5,3.25 C8.60076064,3.25 9.6037805,3.66847801 10.3586449,4.35501932 C9.30683701,5.19184161 8.53200373,6.35925126 8.19132804,7.70140977 C6.53073391,7.94089802 5.17946394,9.1236112 4.69364913,10.6899518 C3.80810961,9.9120608 3.25,8.77120714 3.25,7.5 C3.25,5.15278981 5.15278981,3.25 7.5,3.25 Z M2.09083579,6.49919636 C2.03117474,6.82372403 2,7.15822139 2,7.5 C2,7.84177861 2.03117474,8.17627597 2.09083579,8.50080364 L0,8.5 L0,6.5 L2.09083579,6.49919636 Z M2.90380592,1.48959236 L4.38209707,2.96852312 C3.82960241,3.34939442 3.35019852,3.82869535 2.96920907,4.38110226 L1.48959236,2.90380592 L2.90380592,1.48959236 Z M12.0961941,1.48959236 L13.5104076,2.90380592 L13.3484231,3.06432022 C12.6708098,3.1618885 12.0284253,3.36782786 11.4394767,3.66407369 C11.1899149,3.40566674 10.913971,3.17252661 10.616908,2.96783739 L12.0961941,1.48959236 Z M8.5,0 L8.49980813,2.09065287 C8.17559192,2.03111102 7.84142914,2 7.5,2 C7.15857086,2 6.82440808,2.03111102 6.50019187,2.09065287 L6.5,0 L8.5,0 Z" fill="#B08C00" fill-rule="nonzero"/><path d="M8.50463338,13.7836234 L8.5,14 C8.5,14.0328884 8.50032009,14.0657042 8.50095733,14.0984444 C7.3310578,13.6563236 6.5,12.5256602 6.5,11.2 C6.5,9.48725 7.88725,8.1 9.6,8.1 L10.15025,8.1 C10.66175,6.30975 12.297,5 14.25,5 C16.606,5 18.5125,6.9065 18.5125,9.2625 L18.5125,9.65 L19.675,9.65 C20.9615,9.65 22,10.6885 22,11.975 C22,12.3435286 21.9147824,12.6917068 21.7629289,13.0009528 L18.3990114,13 C17.934012,10.7219882 15.9122317,9 13.5,9 C10.8179192,9 8.61853314,11.128805 8.50463338,13.7836234 Z" fill="currentColor" fill-rule="evenodd" opacity="0.3" transform="translate(14.25, 9.5492) scale(-1, 1) translate(-14.25, -9.5492)"/><path d="M14.25,3 C16.5527059,3 18.601518,4.25080776 19.6905601,6.16736113 C22.133304,6.54178496 24,8.65228797 24,11.2 C24,13.830046 22.0107031,15.9941679 19.4536036,16.2695834 C19.7887363,15.6153581 19.9838635,14.8783309 19.9991347,14.0996821 C21.1689422,13.6563236 22,12.5256602 22,11.2 C22,9.48725 20.61275,8.1 18.9,8.1 L18.34975,8.1 C17.83825,6.30975 16.203,5 14.25,5 C11.894,5 9.9875,6.9065 9.9875,9.2625 L9.9875,9.65 L8.825,9.65 C7.5385,9.65 6.5,10.6885 6.5,11.975 C6.5,12.3435286 6.58521762,12.6917068 6.73707114,13.0009528 L4.62199213,13.0005603 C4.54225382,12.6718743 4.5,12.3284311 4.5,11.975 C4.5,9.79981634 6.10047291,8.00294958 8.19132804,7.70140977 C8.87813896,4.9955838 11.3295224,3 14.25,3 Z" fill="currentColor" fill-rule="nonzero"/><path d="M19,18 C20.65,18 22,19.35 22,21 C22,22.65 20.65,24 19,24 C17.35,24 16,22.65 16,21 L18,21 C18,21.55 18.45,22 19,22 C19.55,22 20,21.55 20,21 C20,20.45 19.55,20 19,20 L2,20 L2,18 L19,18 Z M15,11 C16.65,11 18,12.35 18,14 C18,15.65 16.65,17 15,17 L6,17 L6,15 L15,15 C15.55,15 16,14.55 16,14 C16,13.45 15.55,13 15,13 C14.45,13 14,13.45 14,14 L12,14 C12,12.35 13.35,11 15,11 Z" fill="currentColor" fill-rule="nonzero" opacity="0.6"/></svg>
