<svg width="24" height="24" viewBox="0 0 24 24" xmlns="http://www.w3.org/2000/svg"><path d="M13.0009551,19.9379871 L13,24 L11,24 L11.0000487,19.9381123 C11.3276273,19.9789588 11.6613564,20 12,20 C12.3389895,20 12.6730544,19.9789157 13.0009551,19.9379871 Z M5.67927125,16.9045228 C6.09011227,17.4332316 6.5658286,17.9090227 7.09447025,18.3199461 L4.22182541,21.1923882 L2.80761184,19.7781746 L5.67927125,16.9045228 Z M18.3207287,16.9045228 L21.1923882,19.7781746 L19.7781746,21.1923882 L16.9045228,18.3207287 C17.4335673,17.9096269 17.9096269,17.4335673 18.3207287,16.9045228 Z M12,6 C15.3137085,6 18,8.6862915 18,12 C18,15.3137085 15.3137085,18 12,18 C8.6862915,18 6,15.3137085 6,12 C6,8.6862915 8.6862915,6 12,6 Z M4.06188768,11.0000487 C4.02104125,11.3276273 4,11.6613564 4,12 C4,12.3389895 4.02108425,12.6730544 4.06201291,13.0009551 L0,13 L0,11 L4.06188768,11.0000487 Z M24,11 L24,13 L19.9379871,13.0009551 C19.9789157,12.6730544 20,12.3389895 20,12 C20,11.6613564 19.9789588,11.3276273 19.9381123,11.0000487 L24,11 Z M4.22182541,2.80761184 L7.09346338,5.68083668 C6.56556015,6.09132052 6.09045547,6.5664999 5.68005389,7.09447025 L2.80761184,4.22182541 L4.22182541,2.80761184 Z M19.7781746,2.80761184 L21.1923882,4.22182541 L18.3199461,7.09447025 C17.9092836,6.56616425 17.4338358,6.09071637 16.9055298,5.68005389 L19.7781746,2.80761184 Z M13,0 L13.0009551,4.06201291 C12.6730544,4.02108425 12.3389895,4 12,4 C11.6613564,4 11.3276273,4.02104125 11.0000487,4.06188768 L11,0 L13,0 Z" fill="#B08C00" fill-rule="nonzero"/></svg>
