<svg width="24" height="24" viewBox="0 0 24 24" xmlns="http://www.w3.org/2000/svg"><path d="M6,6 L14,13.9998932 L6,14 C3.79,14 2,12.21 2,10 C2,7.79 3.79,6 6,6 Z M12,2 C15.04,2 17.5,4.46 17.5,7.5 L17.5,8 L19,8 C20.66,8 22,9.34 22,11 C22,12.66 20.66,14 19,14 L16.828,14 L7.36886212,4.5392857 C8.34606423,3.01160542 10.0503226,2 12,2 Z" fill="currentColor" fill-rule="evenodd" opacity="0.5"/><path d="M8.45,17 L6.1,19.68 L8.1,20.68 L5.2,24 L2.55,24 L4.9,21.32 L2.9,20.32 L5.8,17 L8.45,17 Z M2.80761184,2.80761184 L21.1923882,21.1923882 L19.7781746,22.6066017 L19.051,21.8788932 L17.2,24 L14.55,24 L16.9,21.32 L14.9,20.32 L16.108,18.9358932 L14.32,17.1478932 L12.1,19.68 L14.1,20.68 L11.2,24 L8.55,24 L10.9,21.32 L8.9,20.32 L11.8,17 L14.172,16.9998932 L13.172,15.9998932 L6,16 C2.76522727,16 0.122592975,13.4308833 0.00414408809,10.2246968 L0,10 C0,8.04635677 0.935382865,6.30857113 2.38408606,5.21376025 L1.39339828,4.22182541 L2.80761184,2.80761184 Z M12,0 C15.64,0 18.67,2.59 19.35,6.04 C21.95,6.22 24,8.36 24,11 C24,13.76 21.76,16 19,16 L18.828,16 L16.828,13.9998932 L19,14 C20.6007143,14 21.9038776,12.7540051 21.9949189,11.1765862 L22,11 C22,9.34 20.66,8 19,8 L17.5,8 L17.5,7.5 C17.5,4.46 15.04,2 12,2 C10.0503226,2 8.34606423,3.01160542 7.36886212,4.5392857 L5.93048874,3.10133767 C7.29276703,1.22258441 9.50474264,0 12,0 Z M2,10 C2,12.21 3.79,14 6,14 L11.172,13.9998932 L3.81852668,6.64619336 C2.7235318,7.35964918 2,8.59494097 2,10 Z" fill="currentColor" fill-rule="evenodd"/></svg>
