<svg width="24" height="24" viewBox="0 0 24 24" xmlns="http://www.w3.org/2000/svg"><path d="M19,14 L6,14 C3.79,14 2,12.21 2,10 C2,7.79 3.79,6 6,6 L6.71,6 C7.37,3.69 9.48,2 12,2 C15.04,2 17.5,4.46 17.5,7.5 L17.5,8 L19,8 C20.66,8 22,9.34 22,11 C22,12.66 20.66,14 19,14 Z" fill="currentColor" fill-rule="evenodd" opacity="0.15"/><polygon fill="currentColor" fill-rule="evenodd" opacity="0.6" points="11.8 17 8.9 20.32 10.9 21.32 8.55 24 11.2 24 14.1 20.68 12.1 19.68 14.45 17"/><path d="M19.35,6.04 C18.67,2.59 15.64,0 12,0 C9.11,0 6.6,1.64 5.35,4.04 C2.34,4.36 0,6.91 0,10 C0,13.31 2.69,16 6,16 L19,16 C21.76,16 24,13.76 24,11 C24,8.36 21.95,6.22 19.35,6.04 Z M19,14 L6,14 C3.79,14 2,12.21 2,10 C2,7.79 3.79,6 6,6 L6.71,6 C7.37,3.69 9.48,2 12,2 C15.04,2 17.5,4.46 17.5,7.5 L17.5,8 L19,8 C20.66,8 22,9.34 22,11 C22,12.66 20.66,14 19,14 Z" fill="currentColor" fill-rule="evenodd"/></svg>
