<svg width="24" height="24" viewBox="0 0 24 24" xmlns="http://www.w3.org/2000/svg"><path d="M10.5623718,10.9594949 C9.39564564,12.1262211 7.48645733,12.1262211 6.31973114,10.9594949 C5.15300495,9.79276875 5.15300495,7.88358044 6.31973114,6.71685425 C7.48645733,5.55012806 9.39564564,5.55012806 10.5623718,6.71685425 L9.14815827,8.13106781 C8.75924954,7.74215908 8.12285344,7.74215908 7.73394471,8.13106781 C7.34503598,8.51997654 7.34503598,9.15637264 7.73394471,9.54528137 C8.12285344,9.9341901 8.75924954,9.9341901 9.14815827,9.54528137 L17.6334396,1.06 L19.0476532,2.47421356 L10.5623718,10.9594949 Z M6.67328453,19.0912229 C5.30856845,20.455939 3.08825315,20.455939 1.72353707,19.0912229 C0.358820978,17.7265068 0.358820978,15.5061915 1.72353707,14.1414755 C3.08825315,12.7767594 5.30856845,12.7767594 6.67328453,14.1414755 L5.25907097,15.555689 C4.67217234,14.9687904 3.72464926,14.9687904 3.13775063,15.555689 C2.550852,16.1425876 2.550852,17.0901107 3.13775063,17.6770094 C3.72464926,18.263908 4.67217234,18.263908 5.25907097,17.6770094 L19.75476,3.18132034 L21.1689735,4.59553391 L6.67328453,19.0912229 Z M10.2088184,21.91965 C11.5735345,23.2843661 13.7938498,23.2843661 15.1585659,21.91965 C16.523282,20.554934 16.523282,18.3346187 15.1585659,16.9699026 L13.7443523,18.3841161 C14.331251,18.9710148 14.331251,19.9185379 13.7443523,20.5054365 C13.1574537,21.0923351 12.2099306,21.0923351 11.623032,20.5054365 C11.0361334,19.9185379 11.0361334,18.9710148 11.623032,18.3841161 L23.2902939,6.71685425 L21.8760803,5.30264069 L10.2088184,16.9699026 C8.84410235,18.3346187 8.84410235,20.554934 10.2088184,21.91965 Z" fill="currentColor" fill-rule="nonzero" opacity="0.6" transform="translate(11.9951, 12.0016) scale(1, -1) translate(-11.9951, -12.0016)"/></svg>
