<svg width="24" height="24" viewBox="0 0 24 24" xmlns="http://www.w3.org/2000/svg"><defs><linearGradient x1="0%" y1="50%" x2="100%" y2="50%" id="linearGradient-1"><stop stop-color="currentColor" stop-opacity="0" offset="0%"/><stop stop-color="currentColor" stop-opacity="0.7" offset="100%"/></linearGradient><linearGradient x1="0%" y1="50%" x2="100%" y2="50%" id="linearGradient-2"><stop stop-color="currentColor" stop-opacity="0" offset="0%"/><stop stop-color="currentColor" stop-opacity="0.7" offset="100%"/></linearGradient><linearGradient x1="0%" y1="50%" x2="100%" y2="50%" id="linearGradient-3"><stop stop-color="currentColor" stop-opacity="0" offset="0%"/><stop stop-color="currentColor" stop-opacity="0.7" offset="100%"/></linearGradient></defs><path d="M16.7059415,14.8470094 C16.7059415,16.7770094 15.1359415,18.3470094 13.2059415,18.3470094 C11.2759415,18.3470094 9.70594155,16.7770094 9.70594155,14.8470094 L11.7059415,14.8470094 C11.7059415,15.6770094 12.3759415,16.3470094 13.2059415,16.3470094 C14.0359415,16.3470094 14.7059415,15.6770094 14.7059415,14.8470094 C14.7059415,14.0170094 14.0359415,13.3470094 13.2059415,13.3470094 L-3.29405845,13.3470094 L-3.29405845,11.3470094 L13.2059415,11.3470094 C15.1359415,11.3470094 16.7059415,12.9170094 16.7059415,14.8470094 Z" fill="url(#linearGradient-1)" fill-rule="nonzero" transform="translate(6.7059, 14.847) rotate(45) translate(-6.7059, -14.847)"/><path d="M22.2770094,14.1043687 C24.2070094,14.1043687 25.7770094,12.5343687 25.7770094,10.6043687 C25.7770094,8.67436867 24.2070094,7.10436867 22.2770094,7.10436867 C20.3470094,7.10436867 18.7770094,8.67436867 18.7770094,10.6043687 L20.7770094,10.6043687 C20.7770094,9.77436867 21.4470094,9.10436867 22.2770094,9.10436867 C23.1070094,9.10436867 23.7770094,9.77436867 23.7770094,10.6043687 C23.7770094,11.4343687 23.1070094,12.1043687 22.2770094,12.1043687 L1.77700936,12.1043687 L1.77700936,14.1043687 L22.2770094,14.1043687 Z" fill="url(#linearGradient-2)" fill-rule="nonzero" transform="translate(13.777, 10.6044) rotate(45) translate(-13.777, -10.6044)"/><path d="M16.8627958,8.6546212 C18.5127958,8.6546212 19.8627958,7.3046212 19.8627958,5.6546212 C19.8627958,4.0046212 18.5127958,2.6546212 16.8627958,2.6546212 C15.2127958,2.6546212 13.8627958,4.0046212 13.8627958,5.6546212 L15.8627958,5.6546212 C15.8627958,5.1046212 16.3127958,4.6546212 16.8627958,4.6546212 C17.4127958,4.6546212 17.8627958,5.1046212 17.8627958,5.6546212 C17.8627958,6.2046212 17.4127958,6.6546212 16.8627958,6.6546212 L4.8627958,6.6546212 L4.8627958,8.6546212 L16.8627958,8.6546212 Z" fill="url(#linearGradient-3)" fill-rule="nonzero" transform="translate(12.3628, 5.6546) rotate(45) translate(-12.3628, -5.6546)"/></svg>
