<svg width="24" height="24" viewBox="0 0 24 24" xmlns="http://www.w3.org/2000/svg"><path d="M1.39339828,4.22182541 L2.80761184,2.80761184 L21.1923882,21.1923882 L19.7781746,22.6066017 L14.9838962,17.8108314 C14.8271108,19.3162184 13.5450867,20.5 12,20.5 C10.35,20.5 9,19.15 9,17.5 L11,17.5 C11,18.05 11.45,18.5 12,18.5 C12.55,18.5 13,18.05 13,17.5 C13,16.95 12.55,16.5 12,16.5 L0,16.5 L0,14.5 L11.671,14.4991068 L10.671,13.4991068 L0,13.5 L0,11.5 L8.671,11.4991068 L7.671,10.4991068 L0,10.5 L0,8.5 L5.671,8.49910678 L1.39339828,4.22182541 Z M14.327,11.4988932 L20.5,11.5 C22.43,11.5 24,13.07 24,15 C24,16.6733698 22.819764,18.0761122 21.2479508,18.4195683 L17.828,14.9998932 L19,15 C19,15.83 19.67,16.5 20.5,16.5 C21.33,16.5 22,15.83 22,15 C22,14.17 21.33,13.5 20.5,13.5 L16.327,13.4988932 L14.327,11.4988932 Z M16.5,3.5 C18.43,3.5 20,5.07 20,7 C20,8.93 18.43,10.5 16.5,10.5 L13.327,10.4988932 L11.327,8.49889322 L16.5,8.5 C17.2811765,8.5 17.9206228,7.90650519 17.9931488,7.14470588 L18,7 C18,6.17 17.33,5.5 16.5,5.5 C15.67,5.5 15,6.17 15,7 L13,7 C13,5.07 14.57,3.5 16.5,3.5 Z" fill="currentColor" fill-rule="nonzero"/></svg>
