<?xml version="1.0" encoding="UTF-8"?>
<svg width="64px" height="22px" viewBox="0 0 64 22" version="1.1" xmlns="http://www.w3.org/2000/svg" xmlns:xlink="http://www.w3.org/1999/xlink">
    <title>DESE Logo</title>
    <defs>
        <path d="M0,0 L64,0 L64,22 L0,22 L0,0 Z" id="path-1"></path>
    </defs>
    <g id="DESE-Logo" stroke="none" fill="none" xlink:href="#path-1">
        <rect id="Rectangle" fill-rule="nonzero" x="0" y="0" width="64" height="22"></rect>
        <g stroke-width="1" fill-rule="evenodd" transform="translate(-0.85, 0)">
            <path d="M58.8232425,12.572037 C59.0184427,12.5716647 59.0428391,12.4198249 59.037345,12.337336 L59.036915,12.3316962 C58.9577811,11.4145263 58.4390565,10.6476781 57.6044492,10.2603355 C56.6765576,9.82977938 55.6061268,9.82433688 54.68961,10.2864595 C53.9199862,10.6745097 53.4536184,11.3860076 53.2321087,12.2102741 C53.2108285,12.2894624 53.2128967,12.4162727 53.2459327,12.4714052 C53.2974119,12.5574647 53.4003247,12.571997 53.4633232,12.5730586 L58.8232425,12.572037 Z M56.4196172,18.1245291 C57.3225278,18.0330951 58.0443664,17.5597065 58.4453698,16.7555228 C58.4727456,16.7005536 58.5276604,16.6647419 58.5890518,16.6646875 L63.206468,16.6604968 C63.2709072,16.6604424 63.3845466,16.6814504 63.424168,16.7531825 C63.4632996,16.8240983 63.4703748,16.919723 63.4514894,16.9823118 C62.8086214,19.113159 61.1950836,20.7729036 59.0739784,21.5146618 C57.1145155,22.1999813 54.9352844,22.1547541 52.9930197,21.4092406 C50.9864791,20.6390725 49.4680219,18.9607146 48.8368008,16.9062256 C48.2458543,14.982792 48.268876,12.8893891 48.9136489,10.9860383 C49.6461004,8.82395111 51.322499,7.21112091 53.501077,6.54577539 C55.2138315,6.02275122 57.0400621,6.01317243 58.7579325,6.50125575 C61.1561153,7.18254779 62.939459,9.01378548 63.584504,11.407832 C63.8971212,12.5681184 63.9474643,13.7284048 63.8424785,14.9351701 C63.8298519,15.0801039 63.7527317,15.2085469 63.5802045,15.2085469 L53.4785451,15.2077849 C53.3380742,15.2118668 53.244953,15.2461545 53.207944,15.2975861 C53.0073879,15.5760788 53.5330245,17.0274301 54.1385025,17.4765995 C54.7563411,18.0064208 55.5490924,18.2048868 56.3843017,18.1279439 L56.4196172,18.1245291 Z M43.7509704,21.7381961 C41.0973711,22.3458511 37.8646899,21.9248194 35.8976074,19.9458179 C35.0752458,19.1185036 34.5457451,18.0787141 34.4341194,16.8978551 C34.4250304,16.8017949 34.5004635,16.7184159 34.596959,16.7183614 L38.9432844,16.71613 C39.0192072,16.7160756 39.085388,16.7684324 39.1020421,16.8424504 C39.2375059,17.4459691 39.5829957,17.927848 40.1489068,18.2038371 C40.9345315,18.5869891 41.8938264,18.6235083 42.6756959,18.2351315 C43.2059585,17.971769 43.4666543,17.3536644 43.1903386,16.8391305 C42.8095634,16.1301138 41.5362709,15.901868 40.6773136,15.6802254 L38.3677401,15.0786997 C37.7113203,14.9077508 37.121952,14.5982359 36.5682322,14.2288535 C35.5335586,13.5386357 34.9800565,12.4753891 34.911862,11.2417378 C34.7736769,8.74036521 36.5158753,6.98858801 38.8598509,6.42376545 C40.3859276,6.05601578 41.9702391,6.03919846 43.4898937,6.43862347 C45.8122625,7.04899975 47.395159,8.82973104 47.6460038,11.2210563 C47.6561812,11.3180417 47.5808026,11.4028902 47.4833275,11.4027814 L43.4356864,11.3992437 C43.3579131,11.3991349 43.2911881,11.3440024 43.2761124,11.2676985 C43.1429888,10.5935906 42.7340939,10.1026772 42.1211596,9.86304393 C41.0721723,9.4528972 39.4388783,9.62917974 39.3448864,10.7439668 C39.2658972,11.6810607 40.4137192,12.0436619 41.3570831,12.2865046 L43.765774,12.9032784 C44.5405138,13.1016575 45.2508143,13.4183021 45.9174116,13.8380276 C46.9539356,14.4906377 47.5728566,15.504412 47.7262806,16.7073132 C48.0577833,19.3063786 46.2059185,21.1759859 43.7509704,21.7381961 Z M28.6954884,12.5719771 C29.1504814,12.5718683 28.8425992,10.8946533 27.4765863,10.2604933 C26.5485314,9.82966508 25.4781551,9.82449471 24.5618015,10.2863452 C23.791579,10.6745042 23.3259732,11.3850769 23.1043002,12.2104319 C23.0836187,12.2876065 23.0910749,12.4129473 23.1213352,12.4691139 C23.1627526,12.5461797 23.2825965,12.5731745 23.3428994,12.5731745 L28.6954884,12.5719771 Z M26.2912644,18.1244148 C27.1955901,18.0334162 27.9148708,17.5595378 28.3178334,16.7556262 C28.3454269,16.700657 28.4003961,16.6648998 28.4618964,16.6648453 L33.0786595,16.6604369 C33.1429355,16.6603825 33.2296345,16.6733356 33.2908082,16.7571501 C33.3453964,16.8319845 33.339192,16.9285888 33.3223202,16.9844289 C32.6797788,19.1136978 31.0663499,20.7731158 28.9462244,21.5146563 C26.9865981,22.2000302 24.8074215,22.1546398 22.8653201,21.4092895 C20.8588883,20.6392848 19.3404311,18.961199 18.7091012,16.9069277 C18.1178825,14.9834397 18.1405233,12.8894925 18.7856227,10.9859785 C19.5182375,8.82405452 21.1945817,7.21095219 23.3732141,6.54576995 C25.0859686,6.02285463 26.9121447,6.01294928 28.6302329,6.50141358 C30.9976656,7.17448745 32.7696889,8.96849844 33.432803,11.3244475 C33.766537,12.5102592 33.8224315,13.6986833 33.7146156,14.9358722 C33.7024788,15.0750913 33.6184466,15.2077795 33.4493482,15.2078339 L23.2474924,15.2091401 C23.0423315,15.2091401 23.0189011,15.4511859 23.0430374,15.5906363 L23.0445416,15.5988775 C23.1843594,16.3256688 23.4520759,16.9882931 24.0122179,17.4753967 C24.6253982,18.008702 25.423777,18.2040121 26.2565462,18.1277494 L26.2912644,18.1244148 Z M12.2993121,15.6024477 C12.6596055,14.5061107 12.6317944,13.359485 12.2144091,12.3158858 C11.7133726,11.0632402 10.5520522,10.2823504 9.20448938,10.2751796 C7.80663789,10.2679822 6.60003583,11.0903438 6.11374854,12.4040543 C5.70235002,13.5155759 5.71829655,14.7422607 6.17263638,15.837727 C6.71084512,17.1355453 7.95641547,17.9240546 9.33255138,17.866092 C10.6815292,17.8092179 11.8541701,16.9571402 12.2993121,15.6024477 Z M7.89785418,21.9927581 C4.53678441,22.0449517 2.04134412,19.6962412 1.28679604,16.4939291 C0.897820628,14.8431103 0.903480827,13.1462479 1.31008994,11.5004906 C2.00030768,8.70674689 4.06813081,6.54346233 6.97252048,6.19846231 C8.02210644,6.07382908 9.02472363,6.17957684 10.0071491,6.53257733 C10.9003721,6.8707198 11.668853,7.38492712 12.2796647,8.11841273 L12.2916712,8.12960109 C12.3314343,8.16565782 12.387408,8.2054357 12.4497972,8.18524662 C12.5399925,8.15600914 12.5463544,8.04642931 12.546803,8.03145391 L12.5509188,0.16322058 C12.5509733,0.0730383689 12.6241204,0 12.7143027,0 L17.1175022,0.00255800497 C17.2076299,0.00261242996 17.2806683,0.0757051935 17.2807227,0.165832979 L17.2820833,21.5968707 C17.2820833,21.6869441 17.2091538,21.7599824 17.1191349,21.7601457 L12.7275823,21.7681462 C12.6380532,21.7683094 12.5650693,21.6963052 12.5640352,21.6067216 L12.5466642,20.0911498 C12.5473123,20.0779368 12.5491982,19.9904292 12.4887111,19.9482289 C12.4100125,19.8933141 12.3165104,19.9242275 12.2839642,19.9669511 C11.799092,20.6192346 11.1762524,21.0928409 10.4456513,21.4437732 C9.63738576,21.8184893 8.79864221,21.9787709 7.89785418,21.9927581 Z" id="dese" fill="#214782"></path>
            <path d="M63.1868478,5.65748334 C62.6556055,6.15432908 61.890118,6.19275313 61.3987147,5.68736266 C60.8981137,5.17255666 60.9642945,4.37985666 61.4996187,3.88975961 L62.7178133,2.77448269 C63.2296803,2.30588351 64.0329387,2.44200042 64.4288806,2.93062799 C64.8740226,3.47999385 64.7459061,4.19932896 64.2404612,4.67206444 L63.1868478,5.65748334 Z M57.3724746,2.95372595 C57.3745853,3.66304687 56.8108512,4.17137629 56.1623775,4.17823384 C55.4830447,4.18541794 54.9360191,3.63518127 54.9379141,2.93516703 L54.9423324,1.30083896 C54.9441829,0.620798696 55.4678601,0.104196677 56.1108914,0.0835696048 C56.7653519,0.0625615581 57.3652786,0.566700254 57.3673468,1.25893172 L57.3724746,2.95372595 Z M50.8430094,4.05314344 C51.3457331,4.53415151 51.2009082,5.32712364 50.7599569,5.73112035 C50.2554916,6.19324295 49.5341428,6.14649188 49.0382223,5.67506261 L47.815837,4.51314347 C47.318447,4.04035356 47.4302359,3.23018314 47.8849567,2.81394081 C48.3900206,2.3516005 49.1177372,2.40237902 49.6121338,2.87538662 L50.8430094,4.05314344 Z" id="exclamation" fill="#F0BD4A"></path>
        </g>
    </g>
</svg>