<?xml version="1.0" encoding="UTF-8"?>
<svg width="24px" height="24px" viewBox="0 0 24 24" version="1.1" xmlns="http://www.w3.org/2000/svg" xmlns:xlink="http://www.w3.org/1999/xlink">
    <title>Add Fungus ICON</title>
    <g id="MassSims-General-Design" stroke="none" stroke-width="1" fill="none" fill-rule="evenodd">
        <g id="MassSims:-General-Design" transform="translate(-2472, -341)">
            <g id="Add-Fungus-ICON" transform="translate(2472, 341)">
                <polygon id="Path" opacity="0.87" points="0 0 24 0 24 24 0 24"></polygon>
                <path d="M12,2 C17.53,2 22,6.47 22,12 C22,12.7158759 21.9250912,13.4139882 21.7826713,14.0869393 C21.229219,13.6744665 20.5966891,13.3642508 19.9117497,13.1828692 C19.9701437,12.7975201 20,12.4021698 20,12 C20,7.59 16.41,4 12,4 C7.59,4 4,7.59 4,12 C4,16.41 7.59,20 12,20 C12.4021698,20 12.7975201,19.9701437 13.18395,19.9125319 C13.3642508,20.5966891 13.6744665,21.229219 14.0860091,21.7818322 C13.4139882,21.9250912 12.7158759,22 12,22 C6.47,22 2,17.53 2,12 C2,6.47 6.47,2 12,2 Z M19.5,15 L19.5,17.5 L22,17.5 L22,19.5 L19.5,19.5 L19.5,22 L17.5,22 L17.5,19.5 L15,19.5 L15,17.5 L17.5,17.5 L17.5,15 L19.5,15 Z M15.6264648,6.97851562 L15.6264648,8.67382812 L10.7797852,8.67382812 L10.7797852,11.0458984 L14.9633789,11.0458984 L14.9633789,12.7412109 L10.7797852,12.7412109 L10.7797852,17 L8.75634766,17 L8.75634766,6.97851562 L15.6264648,6.97851562 Z" id="Shape" fill="currentColor" fill-rule="nonzero"></path>
            </g>
        </g>
    </g>
</svg>