<?xml version="1.0" encoding="UTF-8"?>
<svg width="80px" height="80px" viewBox="0 0 80 80" version="1.1" xmlns="http://www.w3.org/2000/svg" xmlns:xlink="http://www.w3.org/1999/xlink">
    <title>Banana Tree</title>
    <g id="Banana-Tree" stroke="none" fill="none">
        <polygon id="Path" points="0 0 80 0 80 80.00001 0 80.00001"></polygon>
        <path d="M59.9693,39.28559 L59.96936,39.28559 C55.96472,39.71741 51.36548,40.85993 47.97894,43.07465 C45.43817,44.76612 43.99585,46.93811 42.35278,49.53089 C42.47998,48.00611 42.66406,46.53535 42.99377,45.04627 C43.35931,43.66303 43.81262,42.29407 44.46661,41.01655 C44.5365,40.73878 44.86621,40.81587 45.07586,40.74598 C47.51989,40.37507 49.93163,39.55445 51.9707,38.13355 C52.29321,37.85938 52.88812,37.49561 52.58343,37.00647 C52.15161,36.21985 51.52447,35.55505 50.88665,34.93506 C51.89001,35.06769 52.88085,35.28632 53.88067,35.45117 C54.28027,35.52289 54.77307,35.487 55.01483,35.10895 C55.27649,34.72553 54.93072,34.30261 54.67804,34.02667 C53.88251,33.19708 52.95429,32.5108 52.14978,31.69012 C53.58319,31.98761 54.94678,32.53051 56.36951,32.86737 C56.92145,33.04474 57.49842,32.81177 57.90699,32.43372 C59.39228,31.11847 60.81501,29.72626 62.09431,28.20862 C62.28608,27.96674 62.54048,27.63342 62.30397,27.32886 C61.79158,26.40064 60.9745,25.6911 60.40468,24.80237 C61.32387,25.1518 62.23049,25.56574 63.19447,25.7843 C63.93623,25.91333 64.44331,25.21814 64.86445,24.7182 C65.77827,23.3797 66.36591,21.69897 66.12049,20.07025 C64.73902,20.19922 63.39875,20.60962 62.09791,21.07721 C56.05232,23.41193 51.00306,27.85925 47.2779,33.09851 C45.51118,35.63568 44.07056,38.39331 42.92731,41.26556 C42.4812,42.42309 41.9364,43.5465 41.61927,44.7489 C41.46516,42.94629 41.57087,41.13306 41.53864,39.32507 C41.56916,37.68371 41.51722,36.03534 41.63178,34.39941 C42.01166,33.84387 42.42206,33.30279 42.68537,32.67926 C43.75147,30.31403 44.33924,27.76068 44.75678,25.21094 C44.97535,23.72382 45.26026,22.19715 44.98432,20.69922 C44.70118,19.41803 43.61536,18.5329 42.58692,17.82507 C42.28766,17.59393 41.83796,17.41656 41.84321,16.97216 C41.26991,12.01067 40.81117,6.9829 39.23084,2.21673 C38.92084,1.42474 38.58332,0.16625 37.50202,0.00903 C37.11286,-0.04749 36.19568,0.15393 35.72608,0.8128 C34.99866,1.70697 34.78358,2.42633 34.35718,3.48706 C34.26032,3.80603 34.02027,4.28979 34.40186,4.51379 C35.37842,5.17492 36.39972,5.78241 37.24549,6.61737 C36.02894,6.90228 34.7298,6.60309 33.54542,7.00793 C33.04902,9.69384 33.02943,12.44787 33.24977,15.16613 C33.36623,16.2448 33.41456,17.35387 33.78187,18.38592 C33.9217,18.8446 34.36787,19.07757 34.80512,19.18511 C36.12568,19.53985 37.47669,19.77282 38.80439,20.09716 C37.70252,20.63287 36.55744,21.07909 35.48951,21.68291 C35.07203,21.91405 34.65815,22.20793 34.44312,22.64867 C34.34815,23.50164 34.66175,24.33654 34.86786,25.15544 C35.86585,28.54912 37.43555,31.91594 40.13934,34.28648 C40.21283,37.53862 40.08026,40.79246 39.94946,44.04295 C39.76312,42.93022 39.28827,41.89817 38.89587,40.8499 C36.74926,35.03008 33.07605,29.79265 28.33856,25.78978 C25.50207,23.43712 22.28583,21.46965 18.72906,20.43578 C17.52496,20.10253 16.28686,19.8087 15.02899,19.85167 C14.93042,21.30846 15.6131,22.66124 16.30835,23.89403 C18.04462,26.73046 20.5119,29.00072 22.8717,31.30669 C23.17633,31.62212 23.55261,31.85137 23.94146,32.0504 C25.42864,31.65257 26.60406,30.59001 27.99627,29.97716 C27.44799,31.33721 26.44274,32.50188 26.14898,33.95861 C26.41418,34.27398 26.7528,34.52117 27.18816,34.49792 C28.51415,34.51226 29.84899,34.36712 31.14269,34.07147 C30.4475,34.81512 29.59813,35.48346 29.23266,36.46533 C29.85436,36.99933 30.62664,37.29498 31.37377,37.60858 C33.04375,38.2984 34.82305,38.67285 36.61663,38.84497 C37.83868,41.40362 38.63067,44.17377 38.93883,46.99225 C37.91936,45.89575 37.03057,44.67548 35.91606,43.66669 C32.31987,40.34827 27.74003,38.09949 22.90391,37.3183 C18.8491,36.63025 14.60246,36.75916 10.66764,38.01355 C9.88102,38.31274 9.00309,38.51514 8.3848,39.12262 C9.18583,40.60992 10.57621,41.69928 12.07419,42.42853 C12.50961,42.62921 13.09012,42.87647 13.52017,42.53064 C14.8085,41.51471 15.66861,40.07043 16.89779,38.98816 C16.44265,40.29443 15.80477,41.54877 15.54672,42.91406 C15.44107,43.49109 16.13449,43.60028 16.53042,43.75085 C17.37448,43.98016 18.22555,44.38159 19.11965,44.25793 C20.24312,43.81353 20.78426,42.67749 21.49203,41.78698 C21.59054,42.6668 21.34329,43.62365 21.73922,44.4497 C22.22305,45.17895 23.23721,45.01055 23.9324,44.71844 C25.55941,44.13787 26.76529,42.86926 28.00515,41.72784 C27.67733,42.80828 27.00716,43.76336 26.77969,44.87609 C26.70254,45.4638 27.41568,45.69854 27.88516,45.60534 C30.05508,45.34911 32.14792,44.64141 34.17441,43.84759 C35.42868,44.78106 36.39084,46.04437 37.22409,47.35601 C37.97665,48.51525 38.53213,49.80004 38.8815,51.13671 C37.86374,50.09209 36.59518,49.2661 35.16354,48.93102 C32.79293,48.26623 30.29873,48.69451 27.96219,49.27862 C24.86234,50.16375 21.99362,51.81396 19.62668,53.99645 C18.16098,55.39037 16.81168,57.00487 16.11649,58.92925 C18.36521,59.6281 20.8613,59.28942 22.96311,58.27343 C23.34287,58.04583 23.93955,57.80041 23.86967,57.26104 C23.80345,56.05157 23.53819,54.86358 23.31425,53.67748 C23.89836,54.68261 24.58641,55.64843 25.45011,56.43676 C25.92496,56.87218 26.56815,56.43499 27.04844,56.21819 C29.64835,54.70775 31.90965,52.50914 33.20689,49.77129 C34.30705,49.85186 35.40544,50.16008 36.31742,50.79979 C37.46061,51.53624 37.73356,52.45097 38.21378,53.70519 C38.61875,54.7517 38.57413,57.51092 38.53421,60.03216 C38.49423,62.55334 38.37985,68.42584 38.20786,71.46826 C37.07004,69.41675 34.71738,67.90808 32.31821,68.34344 C32.47763,68.53338 32.6998,68.63555 32.92911,68.72509 C34.10099,69.18377 35.14383,69.98833 35.8516,71.03289 C36.95536,72.65447 37.39634,74.18993 37.29606,76.13763 C35.79664,74.37201 33.86786,73.72788 31.8975,73.49181 C31.36099,73.47769 30.19126,73.43743 30.02097,73.84777 C32.27158,74.26702 34.3859,75.51421 35.69388,77.41534 C34.59006,76.93512 33.39505,76.66455 32.19089,76.69671 C31.15531,76.72369 30.01206,76.92614 29.22006,77.63567 C30.88821,77.6715 32.63168,77.7647 34.13858,78.56023 C33.09927,78.58226 31.99289,78.67449 30.95419,78.96013 C33.86233,79.63274 36.88736,79.9999885 39.99997,79.9999885 C43.60391,79.9999885 47.09329,79.51549 50.41501,78.62188 C49.1182,77.87756 47.43283,77.90502 45.9968,78.15521 C46.58274,77.60882 47.35495,77.32928 48.13974,77.23248 C48.93167,77.15728 49.78464,77.01025 50.54611,77.30591 L50.47806,77.1966 C50.54428,77.1662 50.67697,77.10529 50.74326,77.07483 C50.11789,76.7218 49.46927,76.39209 48.75974,76.25421 C47.30478,75.99078 45.82651,76.36706 44.50602,76.97626 C45.48069,75.53742 46.67771,74.24915 48.05918,73.19562 C48.49277,72.85156 49.025,72.62226 49.36906,72.17432 C47.44999,72.12055 45.70481,73.19745 44.43437,74.55738 C44.63145,72.52912 45.39659,70.61542 45.69938,68.61042 C45.29191,68.90882 45.05253,69.33424 44.78916,69.73737 C43.95054,71.21387 43.24277,72.76917 42.67655,74.36933 C42.48307,70.66022 42.62388,62.91035 42.59879,60.05781 C42.58622,59.22456 42.77323,56.8108 43.17923,55.91407 C43.99429,54.11372 45.31949,52.87647 47.25644,52.79938 C48.43723,54.37439 49.53732,56.09638 51.14822,57.29138 C51.42056,57.45624 51.80941,57.75006 52.10867,57.47241 C52.53158,57.11932 52.87021,56.68042 53.2626,56.29516 C53.20706,57.04052 53.19992,57.78777 53.27151,58.53131 C53.62814,58.86468 54.25167,59.26422 54.66195,58.784 C55.55074,57.83612 56.28536,56.75037 57.20455,55.82929 C56.91976,57.10865 56.36245,58.31275 56.10433,59.59571 C55.99856,59.99525 56.48244,60.13142 56.74233,60.30164 C58.7007,61.22986 60.95302,61.57203 63.09243,61.21369 C63.35763,61.11518 63.96157,61.06861 63.80196,60.64753 C63.05477,58.68916 61.59804,57.10334 60.05349,55.73078 C57.29226,53.44263 53.86996,51.91779 50.29177,51.55225 C48.26522,51.29963 46.52969,51.33258 44.64474,52.14075 C43.81698,52.4776 43.54727,52.70685 42.76779,53.12787 C43.47555,50.31122 44.24447,48.24646 46.45016,46.35065 C48.009,46.95984 49.5267,47.74103 51.18588,48.04749 C51.60336,48.146 52.0245,47.81989 52.01907,47.38624 C52.01724,46.52442 51.6177,45.72706 51.47439,44.88673 C52.58706,45.81489 53.54391,47.05116 54.95761,47.52784 C56.09189,47.92024 57.0433,46.97773 58.09518,46.74128 C58.77066,46.52985 59.47299,46.81477 60.1575,46.6822 C60.48361,46.61762 60.86349,46.34883 60.74698,45.96907 C60.54093,44.91548 60.20053,43.89235 59.95328,42.8495 C60.8151,43.68269 61.43149,44.75233 62.38834,45.49244 C62.69651,45.81672 63.38102,45.5641 63.24302,45.0821 C63.02445,43.82246 62.45103,42.66669 62.04252,41.46442 C63.12834,42.59681 64.01347,43.99268 65.44334,44.73621 C66.23716,45.0337 67.08287,44.68427 67.82646,44.39405 C69.37272,43.72028 70.9066,42.67567 71.61253,41.08991 C70.92094,40.64374 70.13792,40.37317 69.36204,40.11518 C66.33921,39.13508 63.11399,39.01868 59.96928,39.28559 L59.9693,39.28559 Z" id="Path" fill="currentColor" fill-rule="evenodd"></path>
    </g>
</svg>
