<?xml version="1.0" encoding="UTF-8"?>
<svg width="80px" height="80px" viewBox="0 0 80 80" version="1.1" xmlns="http://www.w3.org/2000/svg" xmlns:xlink="http://www.w3.org/1999/xlink">
    <title>Banana Tree Infected</title>
    <g id="Banana-Tree-Infected" stroke="none" fill="none">
        <polygon id="Path" points="0 0 80 0 80 80 0 80"></polygon>
        <path d="M66.46819,47.56841 L66.46825,47.56844 C62.66865,46.23179 56.66322,44.9888 52.48633,45.40157 C49.44882,45.70175 45.03874,45.95711 42.30226,49.95753 C42.18029,48.49224 42.26409,46.7607 42.96567,44.88431 C44.3997,41.42168 45.91208,39.00515 48.40363,37.42886 C49.45338,37.66667 50.16082,39.0675 51.46721,39.80818 C51.57955,39.87187 51.69632,39.93068 51.81811,39.98345 C51.95271,40.04177 51.9291,35.63825 52.01784,35.51296 C52.20154,35.25362 52.70083,35.01663 52.88679,35.03899 C52.99277,35.05173 52.98522,40.26165 53.09794,40.26508 C53.23705,40.25594 53.49732,40.16147 53.80916,40.03454 C53.94108,39.98084 53.63696,34.65267 53.78207,34.59135 C53.89181,34.54498 54.38104,34.29574 54.49303,34.24904 C54.61608,34.19772 54.80715,39.61776 54.92714,39.57042 C55.07971,39.51024 55.22735,39.45513 55.36385,39.40983 C55.51496,39.35968 55.19396,34.00543 55.30932,33.98572 C55.45794,33.96033 56.16786,33.60857 56.40076,33.60567 C56.51721,33.60422 56.76902,39.24214 57.07273,39.22432 C57.37644,39.2065 58.09251,39.329 58.22533,39.33237 C58.51498,39.33972 57.90611,33.21737 58.17059,33.2202 C58.31851,33.22178 58.55912,33.22312 58.68287,33.21922 C58.89841,33.21244 58.75753,39.26421 58.8511,39.22868 C58.96392,39.18966 59.24117,39.14671 59.60023,39.10342 C59.69794,39.09164 59.83878,32.90197 59.94694,32.89021 C60.04054,32.88003 60.50621,32.97881 60.77811,32.95947 C60.90916,32.95015 60.78907,39.00151 60.91835,38.99238 C61.16175,38.97519 61.37713,38.95966 61.47075,38.95082 C61.76196,38.92332 61.48588,33.20187 61.76416,33.17777 C62.06362,33.15183 62.97617,32.92332 63.2023,32.90384 C63.41518,32.8855 63.12868,39.16027 63.22453,39.14991 C63.68758,39.11009 65.30128,38.87346 65.75661,38.89327 C65.94737,38.90157 65.7928,32.8066 65.98261,32.81963 C66.30272,32.8416 67.04853,32.9384 67.36684,32.96088 C67.59808,32.97721 67.51673,38.72489 67.79066,38.82762 C68.09076,38.94016 69.27457,38.52506 69.40391,38.52645 C69.7056,38.52969 69.22209,32.86468 69.52431,32.83747 C69.82653,32.81026 70.39818,32.80138 70.58105,33.03433 C70.64287,33.11308 69.89607,38.43906 70.45742,38.24735 C70.59167,38.2015 70.97055,38.07064 71.11677,38.0207 C71.51016,37.88634 71.41251,33.12934 71.81733,32.99312 C72.07529,32.90632 72.56564,33.24831 72.74455,33.40522 C72.94621,33.58208 72.82525,37.34295 72.98842,37.30444 C74.52019,36.77499 75.96003,35.23383 76.73435,33.78008 C75.54852,33.05974 74.22792,32.58987 72.90487,32.18942 C66.65966,30.4581 61.0623,30.66257 54.88116,32.42248 C51.90765,33.2691 48.60419,35.15412 46.27939,37.36269 C43.78736,39.73012 42.29486,41.84253 41.49614,43.87926 C41.31982,41.4396 39.60772,34.55966 36.07339,29.64445 C32.80081,25.09325 27.96783,21.85826 24.46286,20.25429 C20.95789,18.65032 16.46016,17.42012 12.70111,16.98914 C11.86508,16.83292 9.32059,16.68112 7.85491,17.16968 C7.75463,17.85884 7.80467,18.58855 8.006,19.29318 C8.14902,19.79376 8.82905,21.18709 9.31034,21.64164 C9.50631,21.82672 9.27628,18.59424 9.51566,18.27445 C9.65824,18.21257 11.17319,18.17875 11.34186,18.33952 C11.59057,18.5766 10.84282,22.7873 11.01447,22.93514 C11.114,23.02086 11.4147,23.38028 11.58936,23.53056 C11.80452,23.71569 11.88045,18.68018 12.26691,18.60296 C12.40477,18.57541 13.16323,18.72493 13.31181,18.90768 C13.42473,19.04657 12.67014,24.41206 12.94446,24.63928 C13.11291,24.77881 14.16617,25.56419 14.38168,25.72746 C14.46358,25.78951 14.79701,19.35048 15.09267,19.2983 C15.2896,19.26355 15.82614,19.5708 16.00359,19.69683 C16.28323,19.89544 14.89704,26.14935 15.20653,26.35795 C15.3638,26.46396 15.72746,26.84904 15.88972,26.95574 C16.13221,27.1152 16.7229,19.82399 16.97144,19.98149 C17.17687,20.11167 17.86211,20.37523 18.06785,20.50142 C18.39818,20.70403 17.47412,28.30902 17.7937,28.49335 C18.01394,28.62038 19.23348,29.07529 19.44289,29.18968 C19.60901,29.28042 19.5556,21.03713 19.71226,21.11808 C19.86934,21.19401 21.4712,21.52393 21.64987,21.6006 C21.82082,21.67395 20.89575,29.65915 21.07498,29.73114 C21.34528,29.83972 21.72125,30.02138 21.97837,30.12124 C22.48064,30.3163 22.28714,21.93 22.49389,21.9172 C22.62852,21.90887 23.62905,22.47007 23.94661,22.59805 C24.13895,22.67557 23.71947,30.76957 23.94941,30.86038 C24.12861,30.93115 25.36937,31.43084 25.55709,31.50536 C25.75393,31.5835 25.81003,23.54783 26.00213,23.62581 C26.13533,23.67988 26.86637,24.13406 26.94767,24.24246 C27.1374,24.49544 26.7187,31.81837 26.88257,31.93832 C27.00724,32.02958 27.7944,32.08922 27.97543,32.17675 C28.20475,32.28762 28.48197,25.20999 28.75653,25.31133 C29.13221,25.44999 30.00518,26.27532 30.09363,26.44902 C30.17131,26.61551 29.95271,32.70839 30.11317,32.7523 C30.43977,32.84167 30.65299,33.21728 30.93538,33.28673 C31.22435,33.3578 31.1632,27.25238 31.41679,27.29962 C31.54181,27.3229 32.64789,28.34923 32.70898,28.80548 C32.75279,29.13266 32.36846,33.05124 32.45641,33.06479 C33.37957,33.20705 34.05625,32.3754 35.18849,31.22914 C38.47463,34.80524 39.31142,41.75717 39.83764,45.11553 C38.95721,42.83855 37.62996,41.08093 34.70078,39.06678 C29.84802,35.72994 20.83242,34.90746 14.64691,35.36153 C10.97422,35.66482 7.29964,36.50903 4.03489,38.25855 C2.94137,38.8628 1.85113,39.51901 0.98238,40.42971 C1.9311,41.53961 3.3653,42.02864 4.72453,42.42313 C5.02201,42.49804 5.04953,39.43032 5.30967,39.2702 C5.51888,39.14143 5.93849,38.84203 6.14297,38.8767 C6.30566,38.90428 6.28072,42.64892 6.44388,42.67285 C6.62102,42.69883 7.07561,42.86554 7.25324,42.88752 C7.4613,42.91327 8.88758,43.04084 9.12826,43.05502 C9.31294,43.0659 8.65481,38.71762 8.90124,38.50607 C9.10139,38.33425 10.86425,37.76131 11.04961,37.76391 C11.53578,37.77072 10.99863,43.40711 11.48462,43.40654 C11.62287,43.40638 12.04611,43.36352 12.45166,43.36049 C12.57127,43.3596 12.84427,37.09709 12.95887,37.09623 C13.05257,37.09553 14.68021,37.06295 14.76274,37.06235 C14.94405,37.06103 14.47138,42.96454 14.60014,43.12816 C14.84636,43.24577 15.68689,43.43475 15.91833,43.41641 C16.21554,43.39285 16.9623,43.3797 17.50652,43.15887 C17.76195,43.05522 17.4106,36.75183 17.62908,36.7318 C17.90322,36.70666 18.12293,36.83707 18.17793,36.83857 C18.27363,36.84118 18.3144,42.77202 18.55801,42.76979 C18.81392,42.76745 19.50394,42.79253 19.65522,42.75954 C19.7681,42.73493 19.02919,36.89083 19.25423,36.86763 C19.61788,36.83015 21.14254,36.89828 21.32608,36.90159 C21.45259,36.90388 21.37655,42.47564 21.56226,42.43523 C21.81271,42.38074 21.9576,42.44865 22.15147,42.45199 C22.26022,42.45387 21.96793,37.01852 22.21733,36.9548 C22.32835,36.92643 23.09592,36.84243 23.22476,37.1001 C23.3536,37.35777 23.0324,42.24797 23.16445,42.20572 C23.52468,42.09045 24.78937,41.79998 25.084,41.68318 C25.21254,41.63138 24.65333,37.33416 24.79049,37.27519 C24.90787,37.22472 25.75437,37.41225 25.8434,37.51294 C26.04362,37.73942 25.76012,41.17476 26.05767,41.26188 C26.30598,41.33458 26.76924,41.24739 26.99291,41.13077 C27.16879,41.03907 26.78864,37.74476 26.96423,37.6488 C27.05922,37.59689 27.58568,37.86332 27.67749,37.92052 C27.80662,38.00097 27.83442,40.28406 27.95316,40.23697 C28.84253,39.88429 30.05981,39.03049 30.643,38.55971 C33.79916,39.28728 38.38396,43.21215 39.0278,48.11133 C37.13791,46.2237 34.36189,45.3327 31.52952,45.36349 C26.21167,45.42129 22.64175,46.68026 18.37932,49.09479 C14.78484,51.09343 11.55151,53.84956 9.26533,57.28898 C8.83857,58.01435 8.28003,58.72129 8.17741,59.58197 C9.52548,60.15386 10.37867,60.27073 11.81448,60.03752 C12.03502,60.0017 11.33286,56.6563 11.44162,56.46295 C11.57191,56.23132 12.13435,55.47935 12.51292,55.36269 C12.68483,55.30971 13.15624,59.80399 13.34893,59.74368 C13.57888,59.6717 14.06697,59.48956 14.29572,59.4172 C14.45922,59.36549 13.34296,55.01726 13.41581,54.87986 C13.57834,54.57333 14.5569,53.965 14.5569,53.965 C14.5569,53.965 14.98141,59.30391 15.34045,59.15602 C15.57596,59.05901 16.05109,58.74017 16.38518,58.60101 C16.7366,58.45462 15.85938,53.0698 16.26962,52.89608 C16.57323,52.76751 17.23379,51.81424 17.54506,51.68014 C17.86696,51.54145 17.71021,58.18188 18.01757,58.046 C18.22089,57.95612 19.03698,57.57641 19.22554,57.49099 C19.43275,57.39711 18.58811,51.19419 18.76902,51.10896 C19.2108,50.90081 20.12949,50.4022 20.32339,50.28055 C20.48356,50.18006 20.1796,57.196 20.46352,57.00672 C20.67453,56.86605 21.8202,56.40908 22.075,56.23601 C22.3401,56.05594 22.20602,49.39402 22.49539,49.19456 C22.81866,48.97173 24.27493,48.78989 24.59732,48.56398 C24.89253,48.35711 25.06495,54.99124 25.33299,54.7997 C25.51205,54.67175 26.58461,54.11655 26.69924,53.95893 C26.96042,53.5998 26.36771,48.14112 26.45402,48.0385 C26.69701,47.79174 27.19582,47.86658 27.39527,47.6153 C27.63238,47.31659 28.29515,52.61024 28.5925,52.40871 C31.53081,50.41719 31.07438,48.07248 31.4013,46.83534 C33.0538,46.52836 34.36756,46.6467 35.60317,47.38293 C36.79048,48.09038 38.66894,49.13888 38.92272,51.82451 C37.82619,50.25805 35.55776,50.79136 34.43886,51.23892 C33.31996,51.68648 30.97611,53.1646 29.15458,54.74025 C26.78772,56.92898 24.97238,59.69615 23.84502,62.7119 C23.16607,64.61724 22.69052,66.66689 22.93854,68.69791 C23.84516,68.54521 23.94903,68.77413 24.75581,68.34148 C25.07071,68.17261 24.47969,65.54673 24.51103,65.18994 C24.53643,64.90085 24.97524,63.74033 25.24537,63.50708 C25.5334,63.25837 25.73917,67.99819 25.99761,67.71998 C26.22721,67.47281 26.38259,67.56032 26.58625,67.29372 C26.64765,67.19637 26.17987,62.04464 26.14954,61.71826 C26.12583,61.46314 26.47098,61.09176 26.65285,60.8451 C26.82962,60.60535 27.17012,66.76674 27.35089,66.52366 C27.61051,66.17457 27.75536,65.86142 27.9604,65.58961 C28.17193,65.30918 27.43166,59.76011 27.50498,59.66918 C27.74531,59.29939 28.07532,58.7372 28.28774,58.34887 C28.52164,57.92128 28.68294,64.62321 28.87905,64.17648 C29.00228,63.89577 29.80738,63.24007 29.91436,62.95293 C30.03822,62.62048 29.81377,56.73579 29.91436,56.39597 C29.93382,56.33023 30.74351,55.41603 30.9183,55.23517 C31.0143,55.13584 31.11292,61.05451 31.23203,60.94506 C31.30106,60.88163 31.93711,60.60006 31.92224,60.50584 C31.89305,60.32099 31.59846,54.95643 31.734,54.85869 C31.91652,54.72709 32.35508,54.058 32.46638,54.11365 C32.77235,54.26664 32.65173,58.80737 32.83355,58.64208 C35.77018,55.97241 34.08179,53.76906 34.05723,52.81319 C34.98419,52.07068 36.47619,51.33924 37.38818,51.97895 C38.23855,52.44889 38.67982,54.08436 38.72458,55.33753 C38.7666,56.51413 38.57418,57.51099 38.53426,60.03223 C38.49428,62.55341 38.3799,68.42591 38.20791,71.46833 C37.07009,69.41682 34.71743,67.90815 32.31826,68.34351 C32.47768,68.53345 32.69985,68.63562 32.92916,68.72516 C34.10104,69.18384 35.14388,69.9884 35.85165,71.03296 C36.95541,72.65454 37.39639,74.19 37.29611,76.1377 C35.79669,74.37208 33.86791,73.72795 31.89755,73.49188 C31.36104,73.47776 30.19131,73.4375 30.02102,73.84784 C32.27163,74.26709 34.38595,75.51428 35.69393,77.41541 C34.59011,76.93519 33.3951,76.66462 32.19094,76.69678 C31.15536,76.72376 30.01211,76.92621 29.22011,77.63574 C30.88826,77.67157 32.63173,77.76477 34.13863,78.5603 C33.09932,78.58233 31.99294,78.67456 30.95424,78.9602 C33.86238,79.63281 36.88741,80.00006 40.00002,80.00006 C43.60396,80.00006 47.09334,79.51556 50.41506,78.62195 C49.11825,77.87763 47.43288,77.90509 45.99685,78.15528 C46.58279,77.60889 47.355,77.32935 48.13979,77.23255 C48.93172,77.15735 49.78469,77.01032 50.54616,77.30598 L50.47811,77.19667 C50.54433,77.16627 50.67702,77.10536 50.74331,77.0749 C50.11794,76.72187 49.46932,76.39216 48.75979,76.25428 C47.30483,75.99085 45.82656,76.36713 44.50607,76.97633 C45.48074,75.53749 46.67776,74.24922 48.05923,73.19569 C48.49282,72.85163 49.02505,72.62233 49.36911,72.17439 C47.45004,72.12062 45.70486,73.19752 44.43442,74.55745 C44.6315,72.52919 45.39664,70.61549 45.69943,68.61049 C45.29196,68.90889 45.05258,69.33431 44.78921,69.73744 C43.95059,71.21394 43.24282,72.76924 42.6766,74.3694 C42.48312,70.66029 42.62393,62.91042 42.59884,60.05788 C42.58627,59.22463 42.69218,57.56052 42.97954,56.61904 C43.84339,53.78879 46.41149,52.95928 47.76327,55.84886 C47.52128,56.70688 47.50564,57.5406 47.61738,58.75739 C47.66216,59.24498 48.62838,61.74765 48.85622,61.63331 C49.04201,61.54008 49.02694,57.42741 49.22814,57.26321 C49.36102,57.15477 50.10826,57.85742 50.19935,58.04134 C50.26929,58.18255 49.78474,63.30215 49.85188,63.43866 C49.97808,63.69522 50.81643,65.18452 51.03299,65.22728 C51.17779,65.25587 51.15437,59.48877 51.35757,59.2459 C51.4026,59.19209 51.69878,59.51808 51.77453,59.61653 C51.9071,59.78882 51.25681,65.79096 51.40314,65.97448 C51.55406,66.16375 52.02211,66.54714 52.16832,66.72802 C52.32685,66.92413 52.36628,60.30837 52.53895,60.19565 C52.71596,60.0801 53.4535,60.85374 53.49165,60.92513 C53.63865,61.12756 53.3204,68.31527 53.4813,68.5073 C53.62398,68.67758 54.63041,69.71583 54.78333,69.87725 C54.92267,70.02434 54.88357,63.06699 55.0728,62.9943 C55.22412,62.93618 55.44556,63.53209 55.58036,63.76708 C55.726,64.02096 55.30108,70.03974 55.40913,70.12122 C55.65123,70.30378 55.73064,70.45103 55.98705,70.61253 C56.17148,70.72869 56.3466,65.6705 56.5377,65.77505 C56.72437,65.87718 57.47218,68.00566 57.60579,68.32634 C57.63849,68.40482 57.00421,71.13505 57.08201,71.1693 C57.33006,71.27849 57.58239,71.37782 57.83841,71.46671 C58.11837,71.50743 58.67068,71.75617 58.73253,71.31012 C59.01593,69.23329 58.49805,67.14316 57.80083,65.19805 C56.47499,61.86606 54.20302,58.88689 51.23834,56.8503 C49.58112,55.65684 47.70324,53.65255 46.29724,53.13294 C44.98083,52.64644 43.26509,53.03351 42.68304,54.41206 C42.38923,49.17671 48.57258,46.86684 51.24037,46.84236 C51.4259,47.7874 51.48321,49.67861 52.59785,50.85367 C52.8213,51.08923 53.11579,47.50926 53.39573,47.40764 C53.53803,47.22178 53.79105,47.19783 54.0729,47.33992 C54.24758,47.42799 53.65104,51.93195 53.87462,52.03689 C53.99675,52.09421 54.99076,52.68464 55.12236,52.74465 C55.43315,52.88638 55.18874,47.63062 55.49487,47.44354 C55.76552,47.27815 57.1535,47.12637 57.3962,47.22433 C57.72499,47.35704 57.11613,53.36972 57.37044,53.45812 C57.68882,53.56879 58.0788,53.62886 58.49251,53.656 C58.7612,53.67363 58.44379,47.22964 58.71937,47.22433 C58.82881,47.22222 59.75685,47.32958 60.02749,47.58519 C60.29813,47.8408 59.86182,53.65095 59.96899,53.64409 C60.18134,53.63051 60.38469,53.61354 60.57207,53.59576 C61.03514,53.55183 61.12671,47.96494 61.2893,47.95 C61.53931,47.92703 61.79767,47.9034 62.12463,48.09796 C62.26454,48.18122 61.42222,54.12821 61.56636,54.20794 C61.75906,54.31453 63.26166,54.27772 63.44958,54.32372 C63.6574,54.3746 63.81931,48.57078 64.23851,48.53689 C64.52479,48.51375 65.99998,48.93914 66.12591,49.21985 C66.2568,49.5116 65.95757,54.98399 66.14377,54.96973 C66.29805,54.95792 66.67116,55.22294 66.80447,55.21972 C67.04242,55.21399 67.13742,49.74572 67.26338,49.78569 C67.42459,49.83684 67.89794,50.00196 68.31792,50.14645 C68.57696,50.23557 68.06245,54.8572 68.36489,54.95872 C68.58178,55.03152 70.06094,55.47019 70.28161,55.54159 C70.54761,55.62765 70.1485,51.222 70.40567,51.16846 C70.57994,51.13218 70.94266,51.29942 71.09303,51.33975 C71.40942,51.42459 70.92274,55.77753 71.088,55.78971 C71.26504,55.79586 72.3399,55.5146 72.51945,55.51266 C72.73306,55.51036 72.29008,52.17541 72.50487,52.15985 C72.65554,52.14894 73.44172,52.91938 73.53987,53.03449 C73.695,53.21645 73.48627,55.42995 73.73245,55.37638 C74.63333,55.18037 75.4886,54.81937 76.19631,54.21564 C75.76461,53.51493 75.17471,52.93325 74.58584,52.366 C72.28079,50.17858 69.42079,48.68325 66.4682,47.56848 L66.46819,47.56841 Z" id="Path" fill="currentColor" fill-rule="evenodd"></path>
    </g>
</svg>
